
<svg width="91px" height="91px" viewBox="0 0 91 91" version="1.1" xmlns="http://www.w3.org/2000/svg" xmlns:xlink="http://www.w3.org/1999/xlink">
    <!-- Generator: Sketch 51.3 (57544) - http://www.bohemiancoding.com/sketch -->
    <desc>Created with Sketch.</desc>
    <defs></defs>
    <g id="Page-1" stroke="none" stroke-width="1" fill="none" fill-rule="evenodd">
        <g id="innovator-job-board-home" transform="translate(-217.000000, -45.000000)">
            <g id="header" transform="translate(217.000000, 45.000000)">
                <g id="logo">
                    <g id="INNOVATOR_LOGO-job-board">
                        <path d="M85.3119055,45.5803273 C85.3119055,67.6581917 67.4142603,85.5555932 45.3363959,85.5555932 C23.2587752,85.5555932 5.36113001,67.6581917 5.36113001,45.5803273 C5.36113001,23.5024629 23.2587752,5.60481773 45.3363959,5.60481773 C67.4142603,5.60481773 85.3119055,23.5024629 85.3119055,45.5803273" id="Fill-1" fill="#00A985"></path>
                        <g id="search-(1)" transform="translate(45.447761, 45.691449) scale(-1, 1) translate(-45.447761, -45.691449) translate(18.763955, 19.007643)" fill="#FFFFFF">
                            <path d="M46.8709796,6.51665859 C38.3053031,-2.06140917 24.4408458,-2.18671476 15.7211663,6.2350192 C7.0014868,14.6567533 6.64990611,28.5119795 14.9308558,37.365123 L12.0453868,40.2495401 L10.2074971,38.4123206 C9.90426606,38.1259075 9.42972174,38.1259075 9.12649084,38.4123206 L1.20874527,46.3252848 C-0.402915089,47.9363575 -0.402915089,50.5486824 1.20874527,52.1597551 C2.82040562,53.7702315 5.43308612,53.7702315 7.04474646,52.1597551 L12.5855915,46.6228249 C12.7843629,46.4312863 12.8637521,46.14726 12.7939135,45.8799411 C12.7234779,45.6132193 12.5151559,45.4049733 12.2477397,45.3351599 C11.9809203,45.2647502 11.6967906,45.3447071 11.5051821,45.5434062 L5.96374017,51.0797396 C5.30952545,51.7456497 4.34790154,52.0093883 3.44477471,51.7707111 C2.54164804,51.5314368 1.8366959,50.8267416 1.59733453,49.9239441 C1.35857003,49.0217434 1.62240473,48.0598731 2.28855767,47.4058969 L9.66729234,40.029957 L13.8850673,44.246194 C14.1835229,44.5445409 14.6670209,44.5445409 14.9654765,44.246194 C15.2639322,43.9478474 15.2639322,43.4639286 14.9654765,43.1661788 L13.1275868,41.3283622 L16.0136527,38.4439451 C23.3550641,45.3691714 34.4611948,46.4312863 42.9832965,41.0234519 C43.2202704,40.8808419 43.3611414,40.6212801 43.3527846,40.3450111 C43.343831,40.0687421 43.1862465,39.8187272 42.9409158,39.6910349 C42.6949883,39.563939 42.4001143,39.5794532 42.1691097,39.7316098 C32.8740079,45.5792076 20.6277767,43.1542447 14.2652997,34.2050337 C7.90282271,25.2564192 9.63864061,12.8982971 18.2198367,6.04586735 C26.8010326,-0.805965752 39.2412602,0.232877987 46.5665549,8.41295105 C53.8918497,16.5930241 53.552207,29.0675013 45.792958,36.8376458 C45.4945022,37.1359927 45.4945022,37.6193146 45.792958,37.9176613 C46.0914133,38.2160082 46.5749115,38.2160082 46.8733673,37.9176613 C55.5333556,29.2399459 55.5321615,15.1931809 46.8709796,6.51665859 Z" id="Path"></path>
                        </g>
                        <path d="M45.3446813,2.09254652 C21.421126,2.09254652 1.95754352,21.5558853 1.95754352,45.4796843 C1.95754352,69.4032396 21.421126,88.8668221 45.3446813,88.8668221 C69.2682366,88.8668221 88.7318191,69.4032396 88.7318191,45.4796843 C88.7318191,21.5558853 69.2682366,2.09254652 45.3446813,2.09254652 Z M45.3446813,90.8243656 C20.3418331,90.8243656 0,70.4825325 0,45.4796843 C0,20.4765924 20.3418331,0.135003001 45.3446813,0.135003001 C70.3475295,0.135003001 90.6893626,20.4765924 90.6893626,45.4796843 C90.6893626,70.4825325 70.3475295,90.8243656 45.3446813,90.8243656 Z" id="Fill-2" fill="#00A985" fill-rule="nonzero"></path>
                        <g id="Group-9" transform="translate(29.729903, 25.587211)" fill="#FFFFFE" stroke="#FFFFFF" stroke-width="0.2">
                            <path d="M15.0626545,26.1890643 L7.83478702,26.1890643 C7.5792453,26.1890643 7.37209289,25.9935349 7.37209289,25.7523308 C7.37209289,25.5110183 7.5792453,25.3154889 7.83478702,25.3154889 L15.0626545,25.3154889 C15.3183114,25.3154889 15.5254638,25.5110183 15.5254638,25.7523308 C15.5254638,25.9935349 15.3183114,26.1890643 15.0626545,26.1890643" id="Fill-3"></path>
                            <path d="M13.7063646,28.0251326 L9.07408333,28.0251326 C8.82548308,28.0251326 8.62395771,27.8296032 8.62395771,27.5883994 C8.62395771,27.3470866 8.82548308,27.1515572 9.07408333,27.1515572 L13.7063646,27.1515572 C13.9550769,27.1515572 14.1566023,27.3470866 14.1566023,27.5883994 C14.1566023,27.8296032 13.9550769,28.0251326 13.7063646,28.0251326" id="Fill-4"></path>
                            <path d="M13.8524108,28.9319873 C13.8524108,30.2185551 12.7442588,31.2615218 11.3772804,31.2615218 C10.0103019,31.2615218 8.90214992,30.2185551 8.90214992,28.9319873" id="Fill-5"></path>
                            <g id="Group-7" fill-rule="nonzero">
                                <path d="M12.6116625,23.0649855 C12.9907588,23.2005525 13.7473348,23.3897529 14.4823174,23.0970514 C15.2184547,22.8037793 15.7843856,22.0909113 16.1646366,20.9778467 C16.213597,20.8344058 16.331148,20.724172 16.4787219,20.6832052 C16.568444,20.6575297 18.7177341,20.0170097 19.0008727,17.5790855 C19.0224661,17.3936508 19.1558369,17.2394833 19.337937,17.1897297 C19.4290448,17.1624566 21.6677107,16.4461651 20.800743,12.1748909 C20.7776485,12.0610055 20.7991263,11.9426696 20.8609041,11.8438472 C20.9420813,11.7128447 22.8262465,8.59069507 19.9480938,6.42698601 C19.8389723,6.3450524 19.7723447,6.2196415 19.7656472,6.08441682 C19.7644925,6.06433281 19.6388584,3.97719402 18.2409481,2.82179323 C17.4611621,2.1772793 16.4124406,1.93204905 15.1238828,2.09283519 C14.946286,2.11565792 14.7660334,2.03144204 14.6705376,1.87784506 C14.5832404,1.73999576 13.8205444,0.606276577 12.6116625,1.00202274 L12.6116625,23.0649855 Z M13.6421393,24.168921 C12.7027704,24.168921 11.973215,23.795427 11.930952,23.7734031 C11.7792211,23.6940941 11.6840718,23.5382148 11.6840718,23.3682996 L11.6840718,0.696426366 C11.6840718,0.521946584 11.7843019,0.362643918 11.9426147,0.285503086 C13.4810552,-0.465593007 14.7141862,0.420955998 15.2890085,1.15356568 C16.7207523,1.02941002 17.9157774,1.3550904 18.842098,2.12364588 C20.2743037,3.31191139 20.6018993,5.18896694 20.6732613,5.82469412 C23.5937923,8.17372378 22.145536,11.3990322 21.7426523,12.1602844 C22.5225537,16.2784181 20.6440467,17.5992836 19.8834292,17.9573723 C19.482855,20.3220355 17.6340245,21.2308367 16.9664778,21.485196 C16.4914238,22.7476354 15.7694896,23.5768993 14.8185734,23.9515345 C14.4134958,24.1110654 14.0115359,24.168921 13.6421393,24.168921 Z" id="Fill-6"></path>
                                <path d="M6.59641032,2.04511912 C5.63787139,2.04511912 4.83856933,2.30643959 4.21270729,2.82554302 C2.81121506,3.98836206 2.69377931,6.06363457 2.69274006,6.08440327 C2.68604264,6.21962805 2.61929942,6.34515319 2.5102932,6.42697273 C1.29933093,7.33725805 0.775662215,8.51787884 0.953836598,9.9358562 C1.09067175,11.0232461 1.59216971,11.8357359 1.59725051,11.843838 C1.65891294,11.9426605 1.68050633,12.0609964 1.65729632,12.1748819 C0.790442722,16.4461593 3.02911205,17.1624513 3.12495441,17.1909797 C3.30232047,17.2435862 3.43615333,17.3971833 3.45716938,17.5790806 C3.74053938,20.0170066 5.88983285,20.657527 5.98140271,20.6836591 C6.1273602,20.7254247 6.24514235,20.8355445 6.29364089,20.9778443 C6.67527819,22.0946755 7.24375032,22.8086852 7.98346846,23.1001317 C8.72341754,23.3919205 9.47144973,23.2027199 9.84650507,23.0668105 L9.84650507,1.0020054 C8.63646659,0.607057736 7.87469318,1.74032132 7.78647203,1.87942597 C7.69086061,2.0308549 7.5145338,2.11507085 7.33428092,2.09281867 C7.07885529,2.06098093 6.83266747,2.04511912 6.59641032,2.04511912 Z M8.81602665,24.168921 C8.44662947,24.168921 8.0450154,24.1110653 7.63970622,23.9515343 C6.68878848,23.5768989 5.96685314,22.7476344 5.4919139,21.485194 C4.82425073,21.2308345 2.97553272,20.3220326 2.57472696,17.9573677 C1.81399278,17.5992787 -0.0644017132,16.2784121 0.715500935,12.1602754 C0.312616667,11.3990226 -1.135642,8.17371179 1.78500913,5.82468041 C1.85648673,5.18895274 2.18419827,3.31178167 3.61629076,2.12351526 C4.54238184,1.35541566 5.73660057,1.0293927 7.16903946,1.15354845 C7.74374711,0.421052336 8.97653372,-0.465611446 10.5155539,0.285485208 C10.673867,0.362740212 10.7740973,0.521928884 10.7740973,0.696408797 L10.7740973,23.368299 C10.7740973,23.5382144 10.6789478,23.6940937 10.5271012,23.7734028 C10.4849537,23.7954267 9.7553971,24.168921 8.81602665,24.168921 Z" id="Fill-7"></path>
                            </g>
                        </g>
                    </g>
                </g>
            </g>
        </g>
    </g>
</svg>