<svg width="951px" height="503px" viewBox="0 0 951 503" version="1.1" xmlns="http://www.w3.org/2000/svg" xmlns:xlink="http://www.w3.org/1999/xlink">
    <!-- Generator: Sketch 51.3 (57544) - http://www.bohemiancoding.com/sketch -->
    <desc>Created with Sketch.</desc>
    <defs>
        <linearGradient x1="50.0053623%" y1="100.026886%" x2="50.0053623%" y2="-0.00988758385%" id="linearGradient-1">
            <stop stop-color="#808080" stop-opacity="0.25" offset="0%"></stop>
            <stop stop-color="#808080" stop-opacity="0.12" offset="54%"></stop>
            <stop stop-color="#808080" stop-opacity="0.1" offset="100%"></stop>
        </linearGradient>
        <linearGradient x1="50.0060901%" y1="99.9836778%" x2="50.0060901%" y2="-0.000753156116%" id="linearGradient-2">
            <stop stop-color="#808080" stop-opacity="0.25" offset="0%"></stop>
            <stop stop-color="#808080" stop-opacity="0.12" offset="54%"></stop>
            <stop stop-color="#808080" stop-opacity="0.1" offset="100%"></stop>
        </linearGradient>
    </defs>

 <g id="guy" transform="translate(730.313015, 304.973641)">
                    <g id="Group-4" transform="translate(37.149918, 0.000000)">
                        <path d="M154.03053,152.487683 L135.094517,124.930243 C135.094517,124.930243 134.740654,118.103691 133.497816,116.509673 C132.254979,114.915656 133.230261,111.372433 133.230261,111.372433 C133.230261,111.372433 134.559407,109.423227 133.411508,109.241301 C132.26361,109.059375 133.230261,104.719143 133.230261,104.719143 L133.143953,97.7886336 C133.143953,97.7886336 134.205543,91.1353441 133.3252,89.5413268 C132.793356,88.6629914 132.827187,87.552555 133.411508,86.7084809 C133.411508,86.7084809 134.473099,82.8967005 133.411508,81.917766 C132.349918,80.9388314 132.608842,74.9872561 132.876398,70.3091619 C133.143953,65.6310678 131.020772,62.9541583 131.020772,62.2437811 C131.020772,61.5334038 124.02981,54.6288834 124.02981,54.0051375 C124.02981,53.3813916 119.602201,50.8171029 116.94391,50.1067257 C114.285618,49.3963484 112.965103,48.867897 113.051411,48.5127084 C113.137719,48.1575198 108.891358,46.7800809 108.891358,46.7800809 C108.891358,46.7800809 105.180106,46.5115237 103.756022,44.6576123 C102.331937,42.8037009 98.0165284,42.2492601 97.8870661,42.240597 L97.8093888,41.8680821 L97.7317114,41.4695777 C98.0596824,40.9064738 98.3703919,40.3260436 98.6552088,39.7369503 C98.741517,39.5550244 98.8191943,39.3817616 98.8968717,39.1998358 C100.45446,39.2068611 101.976369,38.7319413 103.255434,37.8397232 C104.519994,36.7795532 105.28643,35.2377996 105.369984,33.5861228 C105.444241,31.9492996 105.090139,30.3214957 104.342917,28.8647129 C103.566144,27.2706956 102.426876,25.6160364 102.815263,23.8834089 C102.987879,23.1383791 103.436681,22.4799807 103.678344,21.7522772 C104.020426,20.321766 103.791185,18.8136828 103.039664,17.5506556 C102.375091,16.2685112 101.442963,15.1336402 100.692082,13.8861485 C99.7382221,12.2924538 99.1048611,10.5265296 98.8278251,8.68826606 C98.771387,7.71245346 98.5373712,6.75526769 98.1373598,5.86408329 C97.7336247,5.23640765 97.2046475,4.69954994 96.5838128,4.28739229 C93.819344,2.30720836 90.4845678,1.29085723 87.0899142,1.39390442 C84.6819164,1.48053579 82.2739185,2.1302711 79.8831822,1.83572443 C78.454392,1.58545376 77.048569,1.21746996 75.6799744,0.735505984 C72.7109734,-0.13080775 69.2845391,-0.511985793 66.7039249,1.19465226 C64.1233106,2.90129032 63.0876126,6.25392447 61.3355568,8.87885508 C59.7820098,11.1919127 57.5207358,13.1411186 56.3383139,15.6014497 C56.3383139,15.5494708 56.3383139,15.5061551 56.3383139,15.4541763 C56.0535525,16.0254344 55.8335296,16.6269515 55.6823718,17.2474457 C55.3543415,19.208957 55.4873372,21.2202628 56.0707585,23.1210529 C56.2068906,24.137001 56.7182289,25.064567 57.5034741,25.7199941 C58.3665558,26.283098 59.5748702,26.1531509 60.6019374,26.3350768 C60.5587833,26.4996764 60.5156292,26.6729392 60.4811059,26.8375388 C60.1852334,28.2241265 60.0376735,29.6384556 60.0409343,31.0564867 C60.0378987,40.0383595 65.9138969,47.9552124 74.4889217,50.5225563 C74.4889217,50.7044821 74.4889217,50.886408 74.4889217,51.0596708 C74.4874562,51.5690952 74.458645,52.0780704 74.4026135,52.5843829 C74.4026135,52.5843829 65.5042413,50.7477978 63.1221359,51.9952896 C60.7400304,53.2427814 56.0362353,54.2043896 55.3544007,54.9147669 C54.6725662,55.6251441 52.8773563,55.0966928 51.2806552,59.2463356 C49.6839541,63.3959783 49.5113377,67.666905 47.4830958,69.6421004 C45.4548538,71.6172957 44.3846325,72.9254294 44.2896936,74.3461839 C44.1947546,75.7669385 44.5572489,76.0788114 43.7632137,76.555284 C42.9691786,77.0317565 41.8126491,78.8596785 42.1665126,79.5700557 C42.4181479,80.5735899 42.031002,81.6293322 41.1912303,82.2296389 C40.3393125,82.8339621 39.8697621,83.8457928 39.9570235,84.8892221 C39.9570235,84.8892221 39.4219129,86.838428 38.1877061,87.280248 C36.9534993,87.722068 36.1508333,90.6502084 36.1508333,90.6502084 L32.1375035,95.2849869 L24.1798903,86.4485868 C22.9383547,85.0753023 20.8247207,84.966902 19.4502027,86.2060189 L15.5318119,89.6972633 C14.0238892,90.0646052 12.661341,90.8797612 11.6220518,92.0363104 C10.7733309,92.9141326 10.0891903,93.9383171 9.6024407,95.0597453 L7.46199812,96.9916249 C6.08145689,98.7016612 5.86343003,101.078163 6.90962585,103.012505 L12.0104386,108.669534 L12.0104386,108.721513 C10.2022249,108.872497 8.48294904,109.573662 7.08224218,110.731361 C-0.52150745,117.471282 -0.616446435,123.674088 0.540083021,126.506934 C1.69661248,129.33978 11.3372349,140.24667 11.3372349,140.24667 C11.3372349,140.24667 16.938635,147.558358 25.0257104,151.448106 L24.9652947,151.508748 C24.8013091,151.682011 24.6459544,151.863937 24.4905997,152.063189 L24.3611375,152.236452 C24.3160135,152.290643 24.275589,152.348609 24.2403061,152.409714 L24.0935822,152.61763 L23.9813815,152.790893 L23.8260268,153.050787 L23.7310879,153.215386 L23.5498407,153.561912 C23.5498407,153.561912 23.5066866,153.63988 23.489425,153.674533 C23.4721634,153.709185 23.3427011,153.995069 23.2736546,154.159668 L23.1959772,154.341594 C23.1959772,154.454215 23.109669,154.575499 23.0578841,154.68812 L22.9802068,154.922024 C22.9802068,155.034645 22.9025294,155.147266 22.8680062,155.26855 L22.7903288,155.519781 C22.7558056,155.641065 22.7212823,155.771012 22.686759,155.909622 C22.686759,155.98759 22.6436049,156.065558 22.6263433,156.143527 C22.6090817,156.221495 22.5314043,156.56802 22.4882502,156.784599 C22.4834071,156.868272 22.4834071,156.952157 22.4882502,157.03583 C22.4532851,157.187192 22.4273466,157.340513 22.4105729,157.494976 C22.4105729,157.598934 22.4105729,157.702891 22.3674188,157.815512 C22.3242647,157.928133 22.3242647,158.101396 22.3070031,158.257332 C22.2897414,158.413269 22.3070031,158.473911 22.3070031,158.595195 C22.3070031,158.716478 22.3070031,158.924394 22.3070031,159.097656 L22.3070031,159.409529 C22.3070031,159.68675 22.3070031,159.972633 22.3070031,160.275843 C22.1257559,170.671608 22.7299131,172.153004 22.7299131,172.153004 C23.5295839,174.107214 25.3321273,175.464184 27.4250775,175.687564 C27.9326865,175.724371 28.4428805,175.698184 28.9441012,175.609596 C33.5443266,174.803924 44.3414785,172.950013 48.1476687,173.66039 C50.4348351,174.084884 54.6725662,173.452475 57.6847213,172.880708 L58.4787564,172.724772 L59.0311287,174.457399 L60.7572921,173.972263 L62.2417926,174.838577 L63.1825516,175.375692 C64.908715,181.318604 72.0205081,179.29143 72.0205081,179.29143 L73.7035173,180.270364 L90.7839039,180.712184 C92.698377,181.877884 94.7218709,182.852798 96.8254756,183.622998 C97.1075314,183.709965 97.3961814,183.773706 97.6885573,183.813587 C99.2704321,183.941322 100.858687,183.970254 102.444137,183.900219 C103.756022,183.900219 104.765827,183.813587 104.765827,183.813587 C104.765827,183.813587 104.593211,179.161483 104.342917,173.946274 C109.636661,173.815195 114.918658,173.381334 120.163204,172.646803 C129.285978,171.03546 133.10943,162.710185 134.49036,158.265995 C134.90384,160.083416 135.192216,161.927245 135.353442,163.784414 C135.726295,165.406275 136.199021,167.003359 136.768896,168.566466 C137.266187,169.828761 137.92165,171.022329 138.719461,172.118352 C145.442867,169.813957 141.369121,166.357366 139.953667,164.84998 C138.538213,163.342594 140.92895,162.103765 140.92895,162.103765 C140.92895,162.103765 142.793206,160.856273 142.655113,159.704076 C142.51702,158.551879 142.387558,157.31305 148.411868,157.399682 C154.436178,157.486313 154.03053,152.487683 154.03053,152.487683 Z M60.5760449,95.9000696 C60.6537223,96.4111947 61.4909115,101.868971 62.2504234,103.307052 C62.4673289,104.263945 62.5343025,105.248929 62.4489322,106.226529 C58.8844048,105.940646 55.1731536,105.784709 55.1731536,105.784709 C55.279776,105.915852 55.345787,106.075474 55.3630316,106.243856 L54.8020285,106.113909 L53.9821009,105.914656 L60.5587833,95.8914065 L60.5760449,95.9000696 Z M47.5607731,116.691599 L53.7318072,117.679197 L54.2496562,117.757165 C54.0784759,118.725001 53.9717924,119.703218 53.930316,120.685306 C53.930316,120.771937 54.068409,120.884558 54.2669178,121.014505 C54.1882592,121.498569 54.1478562,121.988118 54.1460864,122.478575 C54.2496562,122.972374 57.132349,124.029277 60.4465827,124.912917 C60.3947978,125.086179 60.3516437,125.259442 60.3084896,125.415379 C57.3826427,123.87334 52.7824173,123.1543 52.2473067,122.010766 C51.712196,120.867231 36.0558943,115.366139 36.0558943,115.366139 C36.0558943,115.366139 35.4776296,115.062929 34.4937165,114.586457 L38.6192469,115.366139 L39.7498839,115.253518 C42.3202254,115.897884 44.9292598,116.375345 47.5607731,116.682936 L47.5607731,116.691599 Z" id="Shape" fill="url(#linearGradient-1)" fill-rule="nonzero"></path>
                        <path d="M134.94781,156.784279 C134.94781,156.784279 132.470525,171.778266 119.92764,173.995072 C107.384755,176.211878 65.5142923,175.740588 65.5142923,175.740588 C65.5142923,175.740588 41.5758965,172.249555 32.9184374,151.975382 C24.2609783,131.701208 18.6892602,123.584556 26.1124229,123.235453 C33.5355856,122.88635 73.5546032,136.806843 75.8493514,136.981395 C78.1440996,137.155947 137.155635,106.138119 134.94781,156.784279 Z" id="Path" fill="#65617D"></path>
                        <path d="M134.94781,156.784279 C134.94781,156.784279 132.470525,171.778266 119.92764,173.995072 C107.384755,176.211878 65.5142923,175.740588 65.5142923,175.740588 C65.5142923,175.740588 41.5758965,172.249555 32.9184374,151.975382 C24.2609783,131.701208 18.6892602,123.584556 26.1124229,123.235453 C33.5355856,122.88635 73.5546032,136.806843 75.8493514,136.981395 C78.1440996,137.155947 137.155635,106.138119 134.94781,156.784279 Z" id="Path" fill="#000000" opacity="0.05"></path>
                        <path d="M22.1859073,173.221259 C22.9709917,175.116807 24.7700357,176.443292 26.8703683,176.675241 C27.3779834,176.708334 27.8878914,176.680034 28.3882383,176.590997 C32.9941888,175.824382 43.8111936,174.063693 47.6233155,174.712368 C49.9175673,175.125161 54.1658587,174.510184 57.2190456,173.962601 C59.2254255,173.600354 60.708402,173.254956 60.708402,173.254956 C60.708402,173.254956 57.1667052,161.865239 56.7218123,161.528265 C56.2769193,161.191291 40.7318366,152.160392 40.7318366,152.160392 L28.4405786,151.317957 C26.7889552,151.558238 25.2977533,152.406589 24.2795211,153.685199 C22.9797359,155.201581 21.8631418,157.686763 21.7933547,161.764147 C21.5752699,171.797544 22.1859073,173.221259 22.1859073,173.221259 Z" id="Path" fill="#3F3D56"></path>
                        <path d="M23.0567427,173.232826 C23.8021181,175.129376 25.5101679,176.456562 27.5042673,176.688633 C26.3601683,175.185217 25.3037559,173.614761 24.3404788,171.985365 L24.398454,163.674572 C23.9148922,159.046443 25.6210864,154.459842 28.9950577,151.317957 C28.9950577,151.317957 22.8496885,151.747826 22.6840451,161.769664 C22.5184017,171.791502 23.0567427,173.232826 23.0567427,173.232826 Z" id="Path" fill="#000000" opacity="0.05"></path>
                        <path d="M75.9426062,155.848435 L87.2747432,146.805108 L105.107084,128.885922 L100.275151,128.665568 C99.5490641,129.132719 97.5263943,130.613498 97.4485993,132.411586 C97.3621604,134.597497 92.6339537,132.561427 90.1704457,133.813037 C87.7069376,135.064648 75.6746456,150.771479 73.5828248,150.674524 C71.4910039,150.577568 69.8054457,149.581568 68.932413,151.106417 C68.9115473,151.140299 68.8884435,151.172692 68.8632619,151.203373 L75.9426062,155.848435 Z" id="Path" fill="#000000" opacity="0.1"></path>
                        <path d="M24.4645799,153.702863 L25.6964188,154.250633 C34.3713403,157.849059 44.9981191,165.383001 45.7962119,166.756639 C46.2820075,167.599362 52.4672265,171.239924 57.2384334,173.970346 C59.2336653,173.607975 60.708402,173.262459 60.708402,173.262459 C60.708402,173.262459 57.1863838,161.868847 56.7439628,161.531757 C56.3015418,161.194668 40.8515066,152.16068 40.8515066,152.16068 L28.6285422,151.317957 C26.9740138,151.556374 25.4803029,152.411896 24.4645799,153.702863 Z" id="Path" fill="#000000" opacity="0.1"></path>
                        <path d="M0.537487147,128.224059 C1.68207788,131.021748 11.2897031,141.782088 11.2897031,141.782088 C11.2897031,141.782088 17.3595024,149.658657 26.0306443,153.33439 C34.7017862,157.010122 45.3326062,164.705918 46.1216801,166.109066 C46.6332774,166.969893 53.5181641,171.11908 58.3653324,173.951202 L59.4578963,174.579606 L61.8598026,175.965538 L63.1344605,176.688633 C63.1344605,176.688633 66.0826487,174.338574 69.0221658,171.971299 C71.9616829,169.604024 74.8144886,167.288399 74.8578443,167.159275 C74.9445557,166.892419 76.0891465,163.922565 75.8203411,163.715966 C75.6816028,163.629883 75.083294,162.416117 73.9647167,161.012969 C72.7833332,159.451676 71.2473463,158.189324 69.4817363,157.328628 C66.9107705,156.032255 64.8593575,153.907698 63.6634001,151.302837 C63.6634001,151.302837 63.2731987,151.027373 62.6922322,150.657217 C61.4895523,149.845687 60.1460521,149.261985 58.7295204,148.935563 C56.7871846,148.694531 53.1799896,144.760551 53.1799896,144.760551 C51.7579172,143.848608 50.5701853,142.619375 49.7115328,141.170901 C48.7837206,139.251256 35.118001,129.980147 33.8520143,129.11932 L67.0104609,150.200979 L74.9445557,155.254034 L86.3124227,146.421947 L104.200988,128.921329 L98.2959408,128.663081 C89.6247989,128.284317 74.164153,127.698955 72.213146,128.137977 C70.6257997,128.506647 68.9878461,128.611368 67.3659777,128.447874 C67.3659777,128.447874 62.9610376,128.645865 60.0562051,127.1222 C57.1513726,125.598536 52.5556674,124.88405 52.0267277,123.756366 C51.497788,122.628682 35.8984038,117.196862 35.8984038,117.196862 C35.8984038,117.196862 14.6627773,106.006108 7.08419928,112.651695 C-0.494378739,119.297281 -0.624445867,125.426371 0.537487147,128.224059 Z" id="Path" fill="#65617D"></path>
                        <path d="M68.8632619,64.4606422 L71.6139176,73.6250708 L75.1592071,94.2647294 L88.205174,95.1400329 L91.986234,88.8553532 L95.7498295,82.5969326 C95.7498295,82.5969326 98.0988021,74.2552894 99.7928567,66.1849903 C101.28607,59.0512661 102.255348,52.1188617 100.666081,51.3661006 C99.2252611,50.7008699 98.2821791,48.293785 97.6621901,45.7116394 C97.5835999,45.3965301 97.513742,45.0726678 97.4526163,44.7488055 C97.0150654,42.5590654 96.7233465,40.3425697 96.5793923,38.1140043 C96.5793923,38.1140043 69.2387483,36.6872595 73.0547372,47.9874288 C73.7391838,49.9149164 74.0877347,51.9460634 74.0851416,53.9920114 C74.0834132,54.5038039 74.0542637,55.0151341 73.9978192,55.5237926 C73.6115215,59.09243 71.7487103,62.3347083 68.8632619,64.4606422 Z" id="Path" fill="#EE8E9E"></path>
                        <path d="M63.4266886,62.5723092 L64.3951957,77.9604073 L66.5916315,91.0562929 L69.0561362,97.1111938 L71.252572,130.292051 C71.252572,130.292051 92.4386651,132.74861 97.5925065,130.292051 C97.9628665,130.137235 98.2852498,129.886421 98.5264241,129.565463 C104.752541,120.163066 102.711758,92.9333122 102.711758,92.9333122 L105.107084,75.3222005 L103.524613,66.1965998 L99.7024684,65.7900565 L96.7537102,65.4786616 C96.7537102,65.4786616 96.0878615,66.2917483 95.1366492,67.5632775 C92.5424337,71.0232208 87.7344877,77.7701104 88.0544409,80.5986141 C88.4954576,84.4651008 87.5269504,88.3834867 86.0309529,89.032226 C84.5349553,89.6809654 83.3070266,90.7102986 83.0476051,89.6550159 C82.6758618,88.7666857 82.5823864,87.7864212 82.7795361,86.8438119 C83.0476051,85.3473864 81.6380813,80.788911 81.6380813,80.788911 C81.6380813,80.788911 79.2686978,75.4259988 79.4416455,73.1424361 C79.6145932,70.8588735 79.182224,68.2206667 78.4731384,67.6065268 C77.7640529,66.9923868 76.8041931,66.369597 77.6083999,63.558393 C78.4126067,60.747189 74.149446,55.2718287 74.149446,55.2718287 L63.4266886,62.5723092 Z" id="Path" fill="#E3E8F4"></path>
                        <path d="M91.5534528,100.305138 L92.4261915,126.736333 L97.5491673,129.571664 C97.9255541,129.41624 98.2516795,129.160451 98.4917251,128.832391 C104.775443,119.37839 102.71578,91.9991854 102.71578,91.9991854 L105.107084,74.3175075 L103.509972,65.1418212 L99.6524675,64.7330466 C101.144851,57.6447202 102.122318,50.7651298 100.525206,50.0171591 C99.0851874,49.3474645 98.1339022,46.9643953 97.5229852,44.398682 L94.7476763,63.0892506 C94.7476763,63.0892506 94.9833157,64.7678359 95.0618622,66.5073025 C95.1763378,67.6109054 95.0995827,68.7259066 94.8349502,69.8035917 C94.2153057,71.3952036 94.6604024,74.2218368 94.6604024,74.2218368 C93.0632907,77.0310754 92.2603711,82.2320805 91.8763661,87.2678363 C91.352723,93.947388 91.5534528,100.305138 91.5534528,100.305138 Z" id="Path" fill="#000000" opacity="0.1"></path>
                        <path d="M97.0190422,44.398682 C97.0190422,44.398682 101.405157,44.9513766 102.792952,46.7908132 C104.180746,48.6302498 107.847264,48.8979613 107.847264,48.8979613 C107.847264,48.8979613 112.02778,50.3056052 111.933547,50.6251318 C111.839314,50.9446583 113.158575,51.4887171 115.771397,52.2054928 C118.38422,52.9222686 122.736068,55.4525734 122.736068,56.0743548 C122.736068,56.6961362 129.589373,63.5270956 129.589373,64.2352355 C129.589373,64.9433755 131.671065,67.5686747 131.414066,72.2233992 C131.157067,76.8781238 130.891501,82.7505036 131.93663,83.7177191 C132.981759,84.6849346 131.93663,88.4588022 131.93663,88.4588022 C131.364012,89.2962847 131.330505,90.3940668 131.850964,91.2654543 C132.707627,92.8458153 131.671065,99.426335 131.671065,99.426335 L131.765298,106.274566 C131.765298,106.274566 130.805835,110.592492 131.93663,110.747938 C133.067425,110.903383 131.765298,112.855086 131.765298,112.855086 C131.765298,112.855086 130.805835,116.369878 132.022296,117.950239 C133.238758,119.5306 133.58999,126.283837 133.58999,126.283837 L152.222412,153.581767 C152.222412,153.581767 152.479411,158.581926 146.559869,158.495567 C140.640327,158.409208 140.725994,159.6355 140.905893,160.775432 C141.085792,161.915365 139.252533,163.150292 139.252533,163.150292 C139.252533,163.150292 136.896709,164.376583 138.29307,165.870585 C139.689431,167.364588 143.690048,170.784385 137.076609,173.06425 C136.292704,171.981881 135.647932,170.80379 135.157683,169.558094 C134.597745,168.007589 134.131438,166.424331 133.761323,164.817011 C133.761323,164.817011 133.153092,158.141497 131.93663,157.269276 C130.720169,156.397055 130.891501,152.174123 130.891501,152.174123 C130.891501,152.174123 132.604827,148.719782 130.197604,147.346681 C127.790381,145.973581 92.4101948,126.197478 92.4101948,126.197478 L91.5535317,99.953122 C91.5535317,99.953122 90.9453009,80.556997 94.6032523,74.0455641 C94.6032523,74.0455641 94.1663541,71.238912 94.7745849,69.658551 C95.3828157,68.07819 94.6889186,62.9830369 94.6889186,62.9830369 L97.0190422,44.398682 Z" id="Path" fill="#353839"></path>
                        <path d="M74.4648607,54.4817363 C74.4648607,54.4817363 65.4492113,52.65605 62.9968135,53.8847109 C60.5444157,55.1133719 55.8248731,56.0824566 55.1103256,56.791965 C54.395778,57.5014735 52.5961767,56.9650159 50.9818285,61.118236 C49.3674804,65.2714561 49.2175136,69.467939 47.1268004,71.4061084 C45.0360871,73.3442777 43.9863197,74.6594641 43.898104,76.0611759 C43.8098882,77.4628877 44.1715728,77.7916843 43.3599879,78.2589216 C42.548403,78.7261588 41.3927767,80.5518452 41.7456397,81.2527011 C42.0985027,81.953557 60.3944489,97.4329545 60.3944489,97.4329545 C60.3944489,97.4329545 61.2766064,103.325336 62.0970128,104.822225 C62.9174193,106.319115 61.2148553,126.89486 59.4064325,128.296572 C57.5980097,129.698283 71.5449195,129.568495 71.5449195,129.568495 C71.5449195,129.568495 72.1800728,116.07053 72.7181889,115.361021 C73.256305,114.651513 72.3565043,100.236378 72.3565043,100.236378 C72.3565043,100.236378 72.2682886,87.9238109 73.4327365,84.6618026 C74.5971844,81.3997943 74.4648607,70.5927694 74.4648607,70.5927694 C74.4648607,70.5927694 75.496985,64.103363 76.7496486,62.5891681 C78.0023122,61.0749733 74.4648607,54.4817363 74.4648607,54.4817363 Z" id="Path" fill="#000000" opacity="0.1"></path>
                        <path d="M74.4951371,54.4744316 C74.4951371,54.4744316 65.4693366,52.657444 63.0141776,53.8860737 C60.5590186,55.1147035 55.8341622,56.0837636 55.1188101,56.7846017 C54.4034581,57.4854398 52.6018306,56.9663004 50.9944963,61.1107628 C49.3871619,65.2552251 49.2281948,69.468906 47.1351276,71.3983738 C45.0420604,73.3278417 43.991111,74.651647 43.9027959,76.0619755 C43.8144809,77.472304 44.1677412,77.7924399 43.364074,78.2596653 C42.5604068,78.7268907 41.3858164,80.5438784 41.7479082,81.2533688 C42.11,81.9628592 60.4177145,97.4332113 60.4177145,97.4332113 C60.4177145,97.4332113 61.3008652,103.325443 62.1221954,104.813642 C62.9435256,106.301842 61.2390447,126.885716 59.4285857,128.296044 C57.6181267,129.706373 71.5454136,129.567936 71.5454136,129.567936 C71.5454136,129.567936 72.1724506,116.070313 72.7111726,115.369475 C73.2498945,114.668637 72.3490808,100.245216 72.3490808,100.245216 C72.3490808,100.245216 72.2607657,87.9329615 73.4265247,84.6710361 C74.5922836,81.4091106 74.4686425,70.6023602 74.4686425,70.6023602 C74.4686425,70.6023602 75.4930974,64.1131186 76.7471714,62.5989622 C78.0012454,61.0848058 74.4951371,54.4744316 74.4951371,54.4744316 Z" id="Path" fill="#353839"></path>
                        <path d="M72.8489793,47.7059212 C73.5256447,49.5787739 73.8702331,51.5523478 73.8676694,53.540303 C82.7438869,56.1442174 92.2770482,52.435275 96.9522241,44.5590972 C96.5196475,42.4314256 96.231245,40.2777569 96.0889273,38.1123605 C96.0889273,38.1123605 69.0763725,36.726057 72.8489793,47.7059212 Z" id="Path" fill="#000000" opacity="0.1"></path>
                        <path d="M58.896244,34.0209587 C58.9182257,44.864046 67.4247453,53.7925015 78.2544662,54.3393772 C89.084187,54.8862529 98.4469371,46.8601538 99.5612056,36.0744445 C100.675474,25.2887351 93.1512906,15.5181843 82.4384784,13.8396761 C71.7256661,12.161168 61.5734816,19.1621445 59.335229,29.7717455 C59.0408051,31.1689179 58.8936726,32.5931061 58.896244,34.0209587 Z" id="Path" fill="#EE8E9E"></path>
                        <path d="M47.1677778,79.7364086 L42.4340636,81.2051791 C42.6612341,82.1683819 42.2868109,83.1738852 41.4856272,83.7521799 C40.6693079,84.3329378 40.2136572,85.2980604 40.2831452,86.2991808 C40.2831452,86.2991808 39.7665861,88.2009414 38.5895087,88.6339315 C37.4124313,89.0669217 36.6164221,91.9110726 36.6164221,91.9110726 L32.6533126,96.4871841 C32.6533126,96.4871841 31.188317,97.6927645 31.4508307,98.2955548 C31.7133443,98.898345 29.9011532,99.068145 29.9011532,99.068145 L30.8495897,114.43505 L39.021386,115.980231 L44.1022956,115.46234 L48.2347688,113.91716 L51.8506828,111.752209 L53.4850421,107.507208 L60.708402,96.4702041 L47.1677778,79.7364086 Z" id="Path" fill="#353839"></path>
                        <path d="M31.0939442,100.418735 C31.0939442,100.418735 20.1296784,84.5979264 11.9506898,93.1406327 C3.77170121,101.683339 15.2753382,115.514387 17.9721939,115.063375 C20.6690496,114.612362 33.5255354,113.896049 33.5255354,113.896049 L31.0939442,100.418735 Z" id="Path" fill="#EE8E9E"></path>
                        <path d="M60.708402,29.5006239 C61.2754517,29.5473827 61.8090976,29.7823493 62.220765,30.1665237 C62.9106149,30.8843117 62.9459918,32.1555749 63.8569473,32.6052734 C64.1943995,32.7451812 64.56589,32.7872101 64.927099,32.7263461 C67.3150406,32.3890722 68.6947403,29.7514173 70.9942397,29.0249812 C72.3364571,28.6943754 73.753263,28.8131222 75.0183636,29.3622551 C75.5309576,29.5308318 75.9887072,29.8292291 76.3449979,30.22706 C77.1144458,31.2042895 76.5749478,32.6312175 76.928717,33.8073522 C77.4239938,35.4418334 79.4139452,36.090437 81.1474139,36.2979902 C82.8808827,36.5055434 84.8177687,36.6352641 85.9675184,37.9065272 C86.740019,38.8664242 87.061292,40.1010203 86.8519413,41.3052104 C86.7504858,41.7202361 86.7504858,42.1527998 86.8519413,42.5678255 C87.3295296,43.8823289 89.6644059,43.6920718 90.2746577,42.6456579 C90.7168691,41.8932777 90.5842057,41.2619701 91.6278247,41.054417 C92.3823489,40.9919617 93.1406345,41.120006 93.8300375,41.4262831 C95.6594957,42.0489643 97.5892984,42.3419762 99.5257207,42.2910879 C102.897129,35.2796038 101.854634,26.9984839 96.8448939,20.9957998 C91.8351544,14.9931158 83.7471742,12.3340738 76.046274,14.1579489 C68.3453737,15.9818239 62.3981164,21.9649601 60.7526231,29.5438642 L60.708402,29.5006239 Z" id="Path" fill="#000000" opacity="0.1"></path>
                        <path d="M85.9612965,42.5578997 C85.8613768,42.1361557 85.8613768,41.6965899 85.9612965,41.2748459 C86.167478,40.0511629 85.8510685,38.7965817 85.0902622,37.8211464 C83.9579176,36.5293046 82.0416422,36.406272 80.3431253,36.186571 C78.6446085,35.9668701 76.676071,35.3077671 76.1882918,33.6556157 C75.8398781,32.4604423 76.371209,31.0192038 75.6134092,30.0173673 C75.2656648,29.6094844 74.8137842,29.3055434 74.3068578,29.1385634 C73.0619048,28.577606 71.6665171,28.4538404 70.3436518,28.7870418 C68.0789626,29.5252371 66.7201492,32.2055892 64.3683566,32.5483227 C64.0126021,32.609674 63.6468748,32.566981 63.3144051,32.4252901 C62.4433708,31.9683121 62.3823984,30.6676822 61.7029917,29.947063 C60.6229092,28.7958298 58.584689,29.5340251 57.2694272,28.6815853 C56.4773163,28.018842 55.9662733,27.0756683 55.840931,26.0451735 C55.2521775,24.1290352 55.1179142,22.1001321 55.4489656,20.1220348 C56.2154757,16.8001559 59.1595716,14.5240537 61.0410056,11.6855169 C62.7830742,9.04910506 63.7760533,5.70086201 66.4065768,3.94325411 C69.0371004,2.18564621 72.4167134,2.58989603 75.3869403,3.47748802 C76.7547062,3.97146697 78.1623405,4.34489179 79.5940359,4.59356904 C81.9806698,4.89236238 84.3847244,4.23325942 86.7974894,4.15416706 C90.2002186,4.04170283 93.5443282,5.06747924 96.3091837,7.07179618 C96.931621,7.48182819 97.4601977,8.02111189 97.8596248,8.65364329 C98.2642681,9.55116343 98.5005338,10.5165749 98.5564522,11.5009681 C98.837671,13.3461634 99.4706802,15.1188808 100.420466,16.7210635 C101.169555,17.9777532 102.101562,19.1201983 102.772258,20.4208282 C103.524754,21.6914418 103.753066,23.2092192 103.408113,24.6478752 C103.181644,25.3860705 102.737417,26.0451735 102.537079,26.8009449 C102.145113,28.5585528 103.286168,30.2107042 104.061389,31.8189154 C104.812949,33.2881608 105.170299,34.9302721 105.09792,36.5820328 C105.007329,38.2439731 104.237779,39.7936196 102.972596,40.8618081 C101.657959,41.7844793 100.087902,42.2643115 98.4867695,42.2327422 C96.5420659,42.2940539 94.6026319,41.9962253 92.7640742,41.3539383 C92.0877383,41.0441909 91.344122,40.9141074 90.6039092,40.9760526 C89.5673784,41.1869655 89.7328749,41.8548565 89.2625164,42.5930518 C88.7311855,43.7003448 86.431655,43.8936817 85.9612965,42.5578997 Z" id="Path" fill="#3F3D56"></path>
                        <path d="M74.7698974,155.848435 L85.8535575,146.819746 L103.294893,128.929565 L97.5374768,128.665568 C96.8615572,129.297904 96.4289879,130.164008 96.3200496,131.103138 C96.2355061,133.294312 91.6109736,131.261537 89.2014823,132.511121 C86.791991,133.760706 75.0235281,149.442114 72.9775741,149.336515 C70.93162,149.230916 69.2830207,148.254128 68.4291308,149.76771 L68.3614959,149.873308 C68.0187762,150.281681 67.5596283,150.565346 67.0510708,150.682898 L74.7698974,155.848435 Z" id="Path" fill="#000000" opacity="0.1"></path>
                        <path d="M52.553542,155.042356 L58.2215332,172.965969 L59.0816229,175.782537 L61.7823045,175.048522 L67.7341253,173.426862 L94.2248882,166.206207 C97.5538331,166.049115 100.808519,165.175417 103.763283,163.645691 C108.770383,160.856692 114.502482,159.614437 120.2254,160.078038 C123.725965,160.40237 127.622171,158.908736 130.856109,152.976873 C130.856109,152.976873 138.192674,131.468538 119.674942,125.314764 C101.157211,119.160991 100.254117,128.58369 100.254117,128.58369 L100.004691,128.737321 C99.2822156,129.189679 97.2696057,130.623568 97.1921976,132.364719 C97.1061887,134.481412 92.401498,132.509815 89.9502423,133.721792 C87.4989867,134.93377 75.5437398,150.211516 73.4623227,150.11763 C71.3809056,150.023745 69.7037307,149.059284 68.8350401,150.535848 C68.8142782,150.568657 68.7912893,150.600024 68.7662329,150.629734 C68.1211656,151.483239 66.1859638,151.722221 64.8872284,151.756361 C64.1819548,151.756361 63.6745019,151.756361 63.6745019,151.756361 L63.5110848,151.807571 L62.1693449,152.200184 L52.553542,155.042356 Z" id="Path" fill="#65617D"></path>
                        <path d="M53.4596376,120.073806 L56.0184998,120.510708 L57.0840198,109.279736 C57.0840198,109.279736 55.9135623,109.091269 54.4444363,108.731466 C54.8318981,110.29061 53.9439648,116.355848 53.4596376,120.073806 Z" id="Path" fill="#000000" opacity="0.1"></path>
                        <path d="M125.741188,66.4218518 C125.741188,66.4218518 134.004148,64.0302802 131.966825,87.4484794 C129.929503,110.866679 114.636469,125.678711 114.636469,125.678711 C114.636469,125.678711 97.0350523,133.394585 89.130591,132.155157 C81.2261297,130.915729 75.4639174,130.64515 75.4639174,130.64515 C72.9727153,129.392047 70.2487538,128.666946 67.4632735,128.515429 C63.021386,128.340862 53.6916734,125.591428 53.4730766,124.701135 C53.2544798,123.810842 55.790203,110.779395 54.7234504,109.801818 C54.7234504,109.801818 67.1659818,110.308063 68.4076118,111.207085 C69.6492418,112.106106 71.424248,111.460207 72.7795483,111.207085 C74.1348487,110.953962 78.2007497,107.410247 86.2888323,110.508816 C86.2888323,110.508816 89.0431523,110.779395 90.1099048,110.063669 C90.9819322,109.659083 91.9745196,109.596767 92.8904564,109.889102 C93.5747788,109.655737 94.2224555,109.326596 94.8141085,108.911525 C95.0851686,108.562391 97.2186736,108.911525 97.2186736,108.911525 C97.4747044,109.035741 97.7732076,109.038038 98.0311263,108.917777 C98.2890451,108.797515 98.4788549,108.567529 98.5477423,108.291811 C98.8271614,107.566698 99.2493548,106.904852 99.7893723,106.345386 C99.7893723,106.345386 102.193937,92.8600647 106.723264,87.8063423 C107.463552,87.1676524 107.831712,86.1996657 107.702577,85.2314751 C107.344079,83.8087518 115.073662,63.5589486 125.741188,66.4218518 Z" id="Path" fill="#000000" opacity="0.1"></path>
                        <path d="M61.6144975,151.750719 L72.3922317,165.815486 L72.4645116,165.728934 C72.5448225,165.469276 73.6049275,162.474563 73.3559635,162.266837 C73.1069994,162.059111 71.2357535,157.688215 67.4771994,155.844648 C65.5735143,154.837168 63.9747708,153.267265 62.8673489,151.317957 L61.6144975,151.750719 Z" id="Path" fill="#000000" opacity="0.1"></path>
                        <path d="M61.869668,176.86657 L63.1662691,177.594728 C63.1662691,177.594728 66.1652105,175.228214 69.1553314,172.844363 C72.1454524,170.460512 75.0473692,168.128673 75.0914713,167.998644 C75.1796754,167.729919 76.3439703,164.73927 76.0705374,164.531225 C75.9294107,164.444539 75.3208021,163.222274 74.1829684,161.8093 C66.1563901,159.59882 71.2722312,165.077343 71.9514032,165.328731 C71.9514032,165.328731 62.1783826,163.12692 61.6403372,173.58119 C61.5688153,174.681464 61.6459298,175.786202 61.869668,176.86657 Z" id="Path" fill="#000000" opacity="0.1"></path>
                        <path d="M70.7594655,181.156204 L72.4372627,182.121506 L89.3968515,182.561063 C91.2989406,183.712642 93.309113,184.676755 95.3988681,185.439732 C95.6816427,185.525711 95.9708378,185.589115 96.263712,185.629344 C97.8374716,185.752135 99.4171966,185.780916 100.994408,185.715532 C102.291674,185.715532 103.294893,185.629344 103.294893,185.629344 C103.294893,185.629344 102.490588,164.306511 101.885197,162.065631 C101.599799,160.988285 100.15551,161.203754 98.7717593,161.763974 C97.7181337,162.188785 96.7026166,162.702009 95.7361573,163.298115 C95.7361573,163.298115 88.5320076,163.987616 87.3817652,164.608167 C86.2315228,165.228719 82.9883582,164.254798 80.9646235,164.608167 C78.9408888,164.961537 75.3431382,162.238006 75.3431382,162.238006 C65.5012146,158.997349 71.0189187,165.039106 71.7367391,165.306288 C71.7367391,165.306288 62.1629172,163.11712 61.6353624,173.511356 C61.1078077,183.905591 70.7594655,181.156204 70.7594655,181.156204 Z" id="Path" fill="#3F3D56"></path>
                        <path d="M96.0542237,172.93349 C96.2391773,177.355217 99.7532953,182.84783 101.858243,185.749588 C103.17934,185.749588 104.200988,185.663226 104.200988,185.663226 C104.200988,185.663226 103.381908,164.297306 102.765396,162.051898 C102.474755,160.972375 101.003934,161.188279 99.5947636,161.749631 C97.8597229,164.936384 95.9044994,169.366746 96.0542237,172.93349 Z" id="Path" fill="#565387"></path>
                        <path d="M96.0542237,172.93349 C96.2391773,177.355217 99.7532953,182.84783 101.858243,185.749588 C103.17934,185.749588 104.200988,185.663226 104.200988,185.663226 C104.200988,185.663226 103.381908,164.297306 102.765396,162.051898 C102.474755,160.972375 101.003934,161.188279 99.5947636,161.749631 C97.8597229,164.936384 95.9044994,169.366746 96.0542237,172.93349 Z" id="Path" fill="#000000" opacity="0.1"></path>
                        <path d="M93.6065398,173.503707 C94.7407592,177.76404 94.7239559,182.550446 96.5303052,185.439538 C96.8050098,185.525571 97.0859517,185.589015 97.3704677,185.629269 C98.8993144,185.752136 100.433956,185.780935 101.966156,185.715511 C103.2264,185.715511 104.200988,185.629269 104.200988,185.629269 C104.200988,185.629269 103.419637,164.29311 102.831524,162.05083 C102.55427,160.97281 101.151199,161.188414 99.8069388,161.748984 C98.7833822,162.174061 97.7968465,162.687606 96.8579686,163.284084 C96.8579686,163.284084 92.1530588,168.044617 93.6065398,173.503707 Z" id="Path" fill="#000000" opacity="0.05"></path>
                        <path d="M34.431631,130.477759 C34.431631,130.477759 43.2570016,133.064445 50.7413509,142.257002 L34.431631,130.477759 Z" id="Path" fill="#000000" opacity="0.1"></path>
                    </g>
                    <g id="Group" opacity="0.1" transform="translate(92.421746, 17.215815)" fill="#000000">
                        <path d="M48.2542748,6.21144123 L48.2027211,6.40390842 C48.121737,6.65813843 48.0241399,6.9065675 47.9105834,7.14753167 C47.9956473,6.82508235 48.1107325,6.51163198 48.2542748,6.21144123 Z" id="Path"></path>
                        <path d="M0.893597682,1.8984264 C1.04050313,1.29155281 1.25678682,0.704309821 1.53801909,0.148724649 C1.49505766,0.297449298 1.45209623,0.454922456 1.41772709,0.612395614 C1.09148513,2.58161147 1.2239236,4.60131157 1.80437994,6.50889053 C1.92802336,7.53474995 2.43213992,8.47368102 3.21351474,9.13344316 C4.51094984,10.008294 6.52154462,9.24717378 7.57839573,10.3844799 C8.25718628,11.1106061 8.29155542,12.4053854 9.16796853,12.8515594 C9.49612794,13.0033009 9.86283888,13.0461476 10.2162273,12.9740385 C12.5361444,12.6415952 13.8765409,9.97330001 16.1105351,9.23842527 C17.411033,8.8962788 18.7872981,9.01665377 20.0114327,9.57961711 C20.5145972,9.74441478 20.9634812,10.0470939 21.3088678,10.454468 C22.0563966,11.434301 21.5322672,12.8865534 21.8759586,14.0763506 C22.3571266,15.7210703 24.2903908,16.3772084 25.9658865,16.5959211 C27.6413822,16.8146339 29.5316849,16.9283645 30.6572743,18.2231438 C31.4158106,19.1901372 31.7288567,20.4427767 31.5165029,21.6613077 C31.4220821,22.0786879 31.4220821,22.5124613 31.5165029,22.9298415 C31.9804863,24.2683633 34.2488496,24.0671476 34.8417173,23.0173266 C35.2713316,22.2474578 35.1424473,21.6175652 36.156337,21.3988525 C36.8891983,21.3395305 37.62494,21.4688964 38.2958161,21.7750383 C40.1093614,22.4148198 42.0225788,22.7113195 43.9409476,22.6498892 C45.5192486,22.6730616 47.0655974,22.1961365 48.3659745,21.2851219 C48.9270214,20.8226242 49.3890491,20.2479871 49.7235556,19.5966597 C49.4313071,20.7825459 48.7714496,21.8409474 47.8418451,22.6148952 C46.5450263,23.533416 44.9962499,24.0110898 43.4168182,23.9796626 C41.4984377,24.0412904 39.5851854,23.7447852 37.7716866,23.1048117 C37.1019224,22.7949767 36.3652379,22.665445 35.6322076,22.7286258 C34.6183179,22.93859 34.772979,23.6034767 34.3175879,24.3383514 C33.7247202,25.396921 31.4563569,25.5893882 30.9923735,24.2596148 C30.8978302,23.8392952 30.8978302,23.4026522 30.9923735,22.9823326 C31.2047272,21.7638016 30.8916812,20.5111621 30.1331449,19.5441686 C29.0075555,18.2581378 27.125845,18.1356587 25.4417571,17.916946 C23.7576691,17.6982333 21.8329972,17.0420951 21.3518292,15.3973754 C21.0081378,14.2075783 21.5322672,12.7728228 20.7847384,11.7754928 C20.4417072,11.3694446 19.9959513,11.0668709 19.4958956,10.9006419 C18.2678164,10.3422079 16.8913413,10.218999 15.5864057,10.5507016 C13.3524115,11.2855763 12.012015,13.9538715 9.69209794,14.2950633 C9.33834357,14.3563707 8.97475807,14.3138892 8.64383912,14.1725842 C7.78461058,13.7176618 7.73305687,12.4228825 7.05426632,11.7055047 C5.99741521,10.5594501 3.98682043,11.2943248 2.68938533,10.4457195 C1.90801051,9.78595734 1.40389395,8.84702627 1.28025053,7.82116685 C0.695397553,5.90540966 0.562921555,3.87614501 0.893597682,1.8984264 Z" id="Path"></path>
                    </g>
                    <path d="M141.089821,89.5385375 C139.489949,91.7867203 137.649236,93.8736788 136.247197,96.2562151 C134.713069,98.5861176 133.965743,101.380734 134.122636,104.200988 C135.584885,102.63353 136.255799,100.46596 137.184757,98.5043979 C138.750223,95.1724298 141.089821,92.3510052 143.059556,89.2967011 C143.438021,88.7145024 145.855032,85.3377498 144.633624,85.1765256 C143.627253,85.042172 141.666119,88.7682438 141.089821,89.5385375 Z" id="Path" fill="#000000" opacity="0.1"></path>
                    <path d="M97.1924749,55.0942774 L114.964002,88.2479827 C115.496188,89.2291671 114.047944,91.0107915 111.735988,92.2243617 L23.0353916,138.50356 C20.7234355,139.708524 18.4114793,139.889268 17.8880176,138.899477 L0.11649066,105.754379 C-0.415695468,104.764587 0.919132032,102.776398 3.23108816,101.571434 L91.9316842,55.2922356 C94.2523647,54.0786654 96.6690132,54.1044861 97.1924749,55.0942774 Z" id="Path" fill="#FFFFFF"></path>
                    <g id="Group" opacity="0.2" transform="translate(0.000000, 52.553542)" fill="#E6FFFA">
                        <path d="M97.1467962,1.28738056 L114.771308,34.7940692 C115.299092,35.7857002 113.862828,37.5862932 111.569998,38.8127842 L23.603176,85.5847117 C21.3103455,86.8025041 19.017515,86.985173 18.4983835,85.9848435 L0.873871251,52.4868534 C0.346087624,51.4865239 1.66987279,49.4771664 3.9627033,48.259374 L91.9295252,1.48744646 C94.2310079,0.260955519 96.6276647,0.287051071 97.1467962,1.28738056 Z" id="Path"></path>
                    </g>
                    <polygon id="Rectangle" fill="#0DB491" transform="translate(71.518295, 81.689052) rotate(-27.870000) translate(-71.518295, -81.689052) " points="45.5122168 80.763319 97.5236458 80.783959 97.5243728 82.614785 45.5129437 82.594145"></polygon>
                    <polygon id="Rectangle" fill="#0DB491" opacity="0.2" transform="translate(73.612834, 85.648785) rotate(-27.870000) translate(-73.612834, -85.648785) " points="47.6067565 84.7230522 99.6181855 84.7436922 99.6189124 86.5745182 47.6074834 86.5538782"></polygon>
                    <polygon id="Rectangle" fill="#0DB491" opacity="0.2" transform="translate(75.703315, 89.592174) rotate(-27.870000) translate(-75.703315, -89.592174) " points="49.6972369 88.6664415 101.708666 88.6870814 101.709393 90.5179075 49.6979638 90.4972675"></polygon>
                    <polygon id="Rectangle" fill="#0DB491" opacity="0.2" transform="translate(77.797855, 93.551908) rotate(-27.870000) translate(-77.797855, -93.551908) " points="51.7917766 92.6261747 103.803206 92.6468146 103.803933 94.4776407 51.7925035 94.4570007"></polygon>
                    <path d="M22.8296135,101.09928 C18.0529145,103.62715 15.4968607,108.995568 16.5413749,114.306316 C17.5858891,119.617063 21.9835763,123.61228 27.3602809,124.135091 L26.395576,122.305345 C25.7370679,121.062244 26.1065032,119.522282 27.2569196,118.7149 C28.7363182,119.697468 30.6332242,119.791698 32.2023562,118.960569 C33.7714881,118.12944 34.762129,116.50575 34.7850627,114.727435 C36.0950208,114.231771 37.5687397,114.785534 38.2304371,116.022066 L39.2209822,117.903597 C41.8652042,113.160402 41.0773731,107.238932 37.2854107,103.35552 C33.4934483,99.4721074 27.6025273,98.5537554 22.8123866,101.09928 L22.8296135,101.09928 Z M34.5697268,111.810198 C34.5729285,111.898533 34.5582795,111.986605 34.5266596,112.069125 C34.4664571,112.182495 34.3772823,112.277807 34.2682565,112.345313 L34.0529206,112.466145 C34.4335441,114.300764 33.7294332,116.191426 32.2424103,117.327686 C30.7553875,118.463946 28.7494863,118.64405 27.0845518,117.790796 C25.4196174,116.937541 24.3912728,115.202431 24.4403261,113.329233 L24.380032,113.329233 C23.5724601,112.994039 23.1732086,112.079617 23.4756212,111.257822 C23.6664748,110.953834 23.9083418,110.685197 24.1905364,110.463781 C24.9816824,109.690362 25.4601485,108.651586 25.5342324,107.546545 C25.6560885,107.760202 25.7625907,107.98229 25.8529296,108.211122 C26.0084642,107.632683 26.6015688,107.289221 27.1793987,107.442974 C27.3786128,107.539402 27.5861968,107.617404 27.7995661,107.676008 C27.9918669,107.677184 28.1823823,107.639004 28.3594394,107.563807 L29.5050264,107.123632 C30.2280155,106.642958 31.1949358,106.776086 31.7617467,107.434344 C32.4660111,107.999095 33.1071457,108.638634 33.6739295,109.341767 C34.232374,110.045128 34.5468508,110.911691 34.5697268,111.810198 Z" id="Shape" fill="#0DB491" fill-rule="nonzero" opacity="0.2"></path>
                    <path d="M61.6147279,103.958332 C61.5292696,115.007291 85.2439577,117.355504 85.2439577,117.355504 L91.3029537,118.278311 L94.0119829,118.698517 L95.1400329,107.896738 C95.1400329,107.896738 93.9008871,107.715473 92.3455454,107.36942 C90.055262,106.850341 87.0813119,105.960492 86.4574661,104.708112 C85.4148744,102.615319 61.7001863,92.901133 61.6147279,103.958332 Z" id="Path" fill="#EE8E9E"></path>
                    <path d="M162.892558,63.6946281 C162.892558,63.6946281 171.153685,61.302732 169.116815,84.7241086 C167.079944,108.145485 151.790302,122.959528 151.790302,122.959528 C151.790302,122.959528 134.192789,130.676448 126.290081,129.436852 C118.387373,128.197256 112.608955,127.92664 112.608955,127.92664 C110.118305,126.673368 107.394948,125.948168 104.610085,125.796631 C100.169183,125.62204 90.8415396,122.872232 90.6229912,121.981818 C90.4044429,121.091404 92.9396037,108.014542 91.8730878,107.08048 C91.8730878,107.08048 104.31286,107.586794 105.554214,108.485938 C106.795569,109.385081 108.570181,108.739094 109.925181,108.485938 C111.280181,108.232781 115.34518,104.679855 123.431469,107.787574 C123.431469,107.787574 126.185178,108.05819 127.251694,107.342367 C128.123528,106.937726 129.115895,106.875401 130.031629,107.167776 C130.715799,106.93438 131.363332,106.605194 131.954854,106.190066 C132.225854,105.840885 134.358886,106.190066 134.358886,106.190066 C134.614446,106.317782 134.914452,106.32183 135.173375,106.201057 C135.432297,106.080284 135.621727,105.847942 135.68766,105.570269 C135.968085,104.843006 136.389989,104.178411 136.929014,103.61485 C136.929014,103.61485 139.333046,90.1364282 143.861368,85.0732905 C144.602748,84.4391525 144.971411,83.4727856 144.840464,82.5068035 C144.499529,81.0838872 152.23614,60.8837137 162.892558,63.6946281 Z" id="Path" fill="#353839"></path>
                </g>

                </svg>