
<svg width="951px" height="503px" viewBox="0 0 951 503" version="1.1" xmlns="http://www.w3.org/2000/svg" xmlns:xlink="http://www.w3.org/1999/xlink">
    <!-- Generator: Sketch 51.3 (57544) - http://www.bohemiancoding.com/sketch -->
    <desc>Created with Sketch.</desc>
    <defs>
        <linearGradient x1="50.0053623%" y1="100.026886%" x2="50.0053623%" y2="-0.00988758385%" id="linearGradient-1">
            <stop stop-color="#808080" stop-opacity="0.25" offset="0%"></stop>
            <stop stop-color="#808080" stop-opacity="0.12" offset="54%"></stop>
            <stop stop-color="#808080" stop-opacity="0.1" offset="100%"></stop>
        </linearGradient>
        <linearGradient x1="50.0060901%" y1="99.9836778%" x2="50.0060901%" y2="-0.000753156116%" id="linearGradient-2">
            <stop stop-color="#808080" stop-opacity="0.25" offset="0%"></stop>
            <stop stop-color="#808080" stop-opacity="0.12" offset="54%"></stop>
            <stop stop-color="#808080" stop-opacity="0.1" offset="100%"></stop>
        </linearGradient>
    </defs>
    <g id="Page-1" stroke="none" stroke-width="1" fill="none" fill-rule="evenodd">
        <g id="job-board-signin" transform="translate(-238.000000, -400.000000)">
            <g id="sign-in-form" transform="translate(238.000000, 400.000000)">
                <g id="flower" transform="translate(779.000000, 178.000000)">
                    <path d="M28.3311367,267.050208 C28.3311367,267.050208 17.4091121,259.406921 6.58484349,264.835445 C6.58484349,264.835445 9.91743849,271.649374 23.6210691,270.999082 L28.3311367,267.050208 Z" id="Path" fill="#0DB491"></path>
                    <path d="M30.3732469,267.418451 C30.3732469,267.418451 33.8045311,279.280617 25.2079714,287.352554 C25.2079714,287.352554 20.0335214,282.462742 25.1620986,270.483955 L30.3732469,267.418451 Z" id="Path" fill="#0DB491"></path>
                    <path d="M43.7347611,255.897939 C43.7347611,255.897939 42.9469794,245.698683 19.270243,249.075976 C19.270243,249.075976 19.1663597,255.662118 27.477024,258.778323 C35.7876884,261.894528 39.5880859,259.266809 43.7347611,255.897939 Z" id="Path" fill="#0DB491"></path>
                    <path d="M45.2703873,255.639209 C45.2703873,255.639209 55.3205958,258.845109 46.3571313,281.009885 C46.3571313,281.009885 39.7323399,279.540874 38.5325746,270.71817 C37.3328092,261.895466 40.9147174,258.845109 45.2703873,255.639209 Z" id="Path" fill="#0DB491"></path>
                    <path d="M58.2185687,241.480645 C58.2185687,241.480645 59.5637385,224.077133 35.6162879,225.867259 C35.6162879,225.867259 33.9026957,241.585433 53.9945639,245.672158 L58.2185687,241.480645 Z" id="Path" fill="#0DB491"></path>
                    <path d="M73.6359143,220.280581 C73.6359143,220.280581 70.3578805,201.169863 46.4530538,206.863318 C46.4530538,206.863318 46.3589066,223.385332 69.7330855,224.83196 L73.6359143,220.280581 Z" id="Path" fill="#0DB491"></path>
                    <path d="M85.4151565,199.707987 C85.4151565,199.707987 79.7856725,181.421518 55.5140033,186.890834 C55.5140033,186.890834 61.2925546,203.340344 83.8017218,203.082671 L85.4151565,199.707987 Z" id="Path" fill="#0DB491"></path>
                    <path d="M96.2883031,181.401933 C96.2883031,181.401933 90.9514003,160.962705 68.199341,167.077463 C68.199341,167.077463 75.7918726,186.496072 94.7817133,184.866664 L96.2883031,181.401933 Z" id="Path" fill="#0DB491"></path>
                    <path d="M104.443163,161.584234 C104.443163,161.584234 100.331305,137.890608 79.0724876,143.135114 C79.0724876,143.135114 85.2402746,164.690204 102.873491,165.029654 L104.443163,161.584234 Z" id="Path" fill="#00A985"></path>
                    <path d="M110.785832,138.928013 C110.785832,138.928013 105.717543,114.950181 83.6029654,121.892253 C83.6029654,121.892253 92.2751767,144.549813 109.225009,142.207396 L110.785832,138.928013 Z" id="Path" fill="#00A985"></path>
                    <path d="M115.31631,118.567814 C115.31631,118.567814 107.477067,94.6265611 90.8517298,95.2731621 C90.8517298,95.2731621 98.8701068,120.567173 113.883238,123.349259 L115.31631,118.567814 Z" id="Path" fill="#00A985"></path>
                    <path d="M118.034596,97.169955 C118.034596,97.169955 109.278358,68.7248046 95.3822076,70.9161223 C95.3822076,70.9161223 101.450281,92.6613818 117.535491,101.602965 L118.034596,97.169955 Z" id="Path" fill="#00A985"></path>
                    <path d="M118.940692,73.7019397 C118.940692,73.7019397 110.790181,49.998243 97.1943987,49.0494234 C97.1943987,49.0494234 102.735354,72.3752716 118.662339,79.8566722 L118.940692,73.7019397 Z" id="Path" fill="#00A985"></path>
                    <path d="M120.752883,50.6001057 C120.752883,50.6001057 110.642092,26.9330196 101.724876,26.3970346 C101.724876,26.3970346 106.118616,49.7040058 119.887974,54.4859967 L120.752883,50.6001057 Z" id="Path" fill="#00A985"></path>
                    <path d="M121.658979,28.9337962 C121.658979,28.9337962 115.71764,2.32201969 107.16145,0.120263591 C107.16145,0.120263591 108.328203,21.886443 120.798395,30.9275124 L121.658979,28.9337962 Z" id="Path" fill="#00A985"></path>
                    <path d="M59.3140345,240.289699 C59.3140345,240.289699 75.9402197,238.081183 75.4369043,261.882184 C75.4369043,261.882184 60.4129398,264.354022 55.5140033,244.681247 L59.3140345,240.289699 Z" id="Path" fill="#0DB491"></path>
                    <path d="M75.6932128,221.20758 C75.6932128,221.20758 95.0914636,221.148001 93.4742371,245.549522 C93.4742371,245.549522 77.2003663,248.468852 71.8237232,225.820633 L75.6932128,221.20758 Z" id="Path" fill="#0DB491"></path>
                    <path d="M86.0781471,201.965873 C86.0781471,201.965873 103.903995,193.577587 115.31631,215.23227 C115.31631,215.23227 98.8451923,222.218206 84.509061,205.467445 L86.0781471,201.965873 Z" id="Path" fill="#0DB491"></path>
                    <path d="M97.8052611,181.49544 C97.8052611,181.49544 116.260138,172.09725 127.095552,194.373771 C127.095552,194.373771 107.877862,201.297799 96.2883031,185.020895 L97.8052611,181.49544 Z" id="Path" fill="#00A985"></path>
                    <path d="M103.442358,163.15807 C103.442358,163.15807 121.128844,146.860588 135.250412,163.341188 C135.250412,163.341188 117.175496,176.742079 102.630972,166.787131 L103.442358,163.15807 Z" id="Path" fill="#00A985"></path>
                    <path d="M110.513545,138.478661 C110.513545,138.478661 128.416469,122.301008 142.499176,139.222833 C142.499176,139.222833 122.40831,152.512775 109.879736,141.875968 L110.513545,138.478661 Z" id="Path" fill="#00A985"></path>
                    <path d="M113.504119,118.221204 C113.504119,118.221204 127.239447,96.559388 143.405272,101.40297 C143.405272,101.40297 129.159626,124.3385 113.651159,123.316063 L113.504119,118.221204 Z" id="Path" fill="#00A985"></path>
                    <path d="M116.575765,97.0856233 C116.575765,97.0856233 130.365425,70.2963387 143.405272,74.966811 C143.405272,74.966811 133.468098,95.554321 116.222405,101.602965 L116.575765,97.0856233 Z" id="Path" fill="#00A985"></path>
                    <path d="M117.557576,72.7177013 C117.557576,72.7177013 131.371131,51.1764671 144.311367,53.8017507 C144.311367,53.8017507 133.017001,75.6472396 116.222405,78.9505766 L117.557576,72.7177013 Z" id="Path" fill="#00A985"></path>
                    <path d="M119.846787,50.4340437 C119.846787,50.4340437 130.839859,26.5687275 139.78089,26.3970346 C139.78089,26.3970346 134.495594,50.0992425 120.588281,54.4859967 L119.846787,50.4340437 Z" id="Path" fill="#00A985"></path>
                    <path d="M121.658979,29.6458699 C121.658979,29.6458699 134.074167,4.69502755 143.405272,4.65074135 C143.405272,4.65074135 137.053111,25.9789729 122.070774,31.8336079 L121.658979,29.6458699 Z" id="Path" fill="#00A985"></path>
                    <path d="M115.31631,103.286075 L116.863519,103.415157 C117.183631,99.6804039 117.432607,95.8509916 117.601556,92.0473956 C119.077629,58.9337361 121.362875,28.5221788 124.377265,5.72641896 L123.488065,4.65074135 C120.473674,27.4895283 117.539312,58.8218656 116.063238,91.9871576 C115.903182,95.7563319 115.636422,99.5771388 115.31631,103.286075 Z" id="Path" fill="#444053"></path>
                    <path d="M1.04666132,286.446458 C1.31482355,286.333556 27.8109819,274.452808 55.3105859,246.114445 C71.4198612,229.520234 84.8067247,210.46674 94.9726447,189.663523 C107.680074,163.670045 115.430828,131.727508 118.034596,100.69687 L116.460225,101.435074 C110.629859,171.086827 79.038618,218.679297 53.9265228,244.603298 C26.695081,272.681118 0.501686464,284.440279 0.242174629,284.553181 L1.04666132,286.446458 Z" id="Path" fill="#444053"></path>
                </g>
                <path d="M543.702514,72.0205738 C483.203175,72.4826882 425.089268,58.7989661 369.514691,43.5491894 C313.940114,28.2994127 258.818684,11.1755051 199.507786,4.18388474 C161.357977,-0.334567613 117.941407,0.375719405 87.9482358,17.8761646 C59.0922056,34.7005535 50.5593706,62.2733821 46.3442527,87.7239073 C43.1722268,106.875984 41.6246886,126.969404 52.7909036,144.401388 C60.5456945,156.493383 73.9006928,166.420286 83.2970712,177.938916 C116.009122,218.023066 95.7286765,269.600172 63.2902236,311.019319 C48.0969893,330.419568 30.3131248,349.092415 18.736513,369.630834 C7.15990113,390.169254 2.33773786,413.369111 13.7861007,433.471089 C25.1404142,453.401914 51.0125171,467.753135 78.8340052,477.500327 C135.349075,497.302786 201.243423,501.205086 265.419234,502.463064 C407.467852,505.235751 549.884117,496.780768 691.907085,488.334343 C744.472085,485.210792 797.267933,482.061567 848.781291,473.657931 C877.389373,468.993998 906.860998,462.164973 927.226943,447.471445 C953.081946,428.815714 958.588104,398.590006 940.051845,377.00755 C908.955732,340.817143 826.337711,334.493021 804.107881,295.256082 C791.872924,273.65651 802.765541,248.728003 818.64277,227.727469 C852.79121,182.67131 911.272765,142.15072 912.649304,91.9770717 C913.598347,57.5324302 883.579525,24.131825 838.538469,9.45541249 C791.308628,-5.94840236 726.72242,-1.48985373 693.326375,27.9571057 C658.989836,58.2256018 597.139607,71.6183631 543.702514,72.0205738 Z" id="bg" fill="#00A985"></path>


            </g>
        </g>
    </g>
</svg>