
<svg width="313px" height="289px" viewBox="0 0 313 289" version="1.1" xmlns="http://www.w3.org/2000/svg" xmlns:xlink="http://www.w3.org/1999/xlink">
    <!-- Generator: Sketch 51.3 (57544) - http://www.bohemiancoding.com/sketch -->
    <desc>Created with Sketch.</desc>
    <defs>
        <rect id="path-1" x="45" y="0" width="216" height="238" rx="5"></rect>
        <filter x="-22.0%" y="-11.6%" width="144.0%" height="139.9%" filterUnits="objectBoundingBox" id="filter-2">
            <feOffset dx="0" dy="20" in="SourceAlpha" result="shadowOffsetOuter1"></feOffset>
            <feGaussianBlur stdDeviation="12.5" in="shadowOffsetOuter1" result="shadowBlurOuter1"></feGaussianBlur>
            <feColorMatrix values="0 0 0 0 0   0 0 0 0 0   0 0 0 0 0  0 0 0 0.1 0" type="matrix" in="shadowBlurOuter1"></feColorMatrix>
        </filter>
    </defs>
    <g id="Page-1" stroke="none" stroke-width="1" fill="none" fill-rule="evenodd">
        <g id="innovator-job-board-signin-mobile" transform="translate(-7.000000, -163.000000)">
            <g id="sign-in-form" transform="translate(7.000000, 168.000000)">
                <path d="M177.773138,76.5809553 C157.724518,76.733905 138.466396,72.2048929 120.049772,67.157551 C101.633149,62.1102091 83.3666911,56.442571 63.7119035,54.1284979 C51.0695996,52.6329892 36.6819665,52.8680786 26.7426563,58.6603424 C17.1801786,64.2288464 14.3525185,73.3548484 12.9556884,81.7784145 C11.9045242,88.1173321 11.391692,94.767814 15.0920168,100.537419 C17.6618441,104.539604 22.0875005,107.825191 25.2013266,111.637605 C36.0416346,124.90458 29.3209836,141.975472 18.571342,155.684302 C13.5365204,162.105359 7.64320077,168.285662 3.80687637,175.083429 C-0.0294480282,181.881196 -1.62744431,189.55984 2.16638019,196.213154 C5.9290381,202.809821 14.5026848,207.55976 23.72233,210.785867 C42.4506197,217.340047 64.2870689,218.631623 85.5540193,219.047986 C132.62691,219.965685 179.821633,217.167271 226.886024,214.371689 C244.305316,213.337862 261.801109,212.295538 278.871903,209.514118 C288.352214,207.970459 298.118691,205.710201 304.867675,200.846966 C313.435655,194.672327 315.260318,184.66828 309.117665,177.52496 C298.812856,165.546729 271.43442,163.453583 264.06777,150.467016 C260.01328,143.318031 263.622938,135.067242 268.884426,128.116525 C280.200733,113.203924 299.580688,99.7924966 300.036853,83.1861187 C300.351352,71.7856973 290.403542,60.7308289 275.477577,55.873258 C259.82628,50.7749329 238.42333,52.2506148 227.356356,61.996913 C215.977716,72.0151219 195.48143,76.4478323 177.773138,76.5809553 Z" id="green-bg" fill="#00A985"></path>

            </g>
        </g>
    </g>
</svg>