<svg width="951px" height="503px" viewBox="0 0 951 503" version="1.1" xmlns="http://www.w3.org/2000/svg" xmlns:xlink="http://www.w3.org/1999/xlink">
    <!-- Generator: Sketch 51.3 (57544) - http://www.bohemiancoding.com/sketch -->
    <desc>Created with Sketch.</desc>
    <defs>
        <linearGradient x1="50.0053623%" y1="100.026886%" x2="50.0053623%" y2="-0.00988758385%" id="linearGradient-1">
            <stop stop-color="#808080" stop-opacity="0.25" offset="0%"></stop>
            <stop stop-color="#808080" stop-opacity="0.12" offset="54%"></stop>
            <stop stop-color="#808080" stop-opacity="0.1" offset="100%"></stop>
        </linearGradient>
        <linearGradient x1="50.0060901%" y1="99.9836778%" x2="50.0060901%" y2="-0.000753156116%" id="linearGradient-2">
            <stop stop-color="#808080" stop-opacity="0.25" offset="0%"></stop>
            <stop stop-color="#808080" stop-opacity="0.12" offset="54%"></stop>
            <stop stop-color="#808080" stop-opacity="0.1" offset="100%"></stop>
        </linearGradient>
    </defs>

<g id="girl" transform="translate(0.000000, 112.000000)">
                    <path d="M140.194939,5.28514981 L140.194939,53.6479999 C140.194939,55.0902492 137.498054,56.2388669 134.163567,56.2388669 L6.87576434,56.2388669 C3.54989337,56.2388669 0.844392112,55.0729767 0.844392112,53.6479999 L0.844392112,5.28514981 C0.844392112,3.84290054 3.53266088,2.37474259 6.87576434,2.37474259 L134.1808,2.37474259 C137.498054,2.37474259 140.194939,3.84290054 140.194939,5.28514981 Z" id="Path" fill="#E6FFFA"></path>
                    <path d="M140.444811,3.81889421 L140.444811,52.6321226 C140.444811,54.0878028 137.726748,55.247117 134.366076,55.247117 L6.07873415,55.247117 C2.72674646,55.247117 0,54.0703695 0,52.6321226 L0,3.81889421 C0,2.363214 2.70937865,0.881383855 6.07873415,0.881383855 L134.383444,0.881383855 C137.726748,0.881383855 140.444811,2.363214 140.444811,3.81889421 Z" id="Path" fill="#FFFFFF"></path>
                    <g id="Group-2" transform="translate(13.000000, 13.000000)">
                        <rect id="Rectangle" fill="#00A985" x="49.5205931" y="6.00329489" width="66.1449753" height="2.71828666"></rect>
                        <path d="M15.9942153,0.566721582 C9.19508993,0.570582521 3.20196932,4.99198021 1.24486384,11.447989 C-0.712241632,17.9039979 1.8292104,24.8688046 7.49949672,28.5887055 L7.49949672,27.5672887 C7.50415016,25.8151686 8.82684778,24.3420297 10.5815765,24.1346585 C11.6544277,26.0768883 13.710116,27.2844726 15.943551,27.2844726 C18.1769859,27.2844726 20.2326743,26.0768883 21.3055254,24.1346585 C23.0602542,24.3420297 24.3829518,25.8151686 24.3876052,27.5672887 L24.3876052,28.6556837 C30.1070526,24.9683548 32.7005763,17.99127 30.7625972,11.5057114 C28.8246181,5.0201528 22.8164304,0.569868078 15.9942153,0.566721582 Z M22.0317141,19.9317795 C21.7941809,23.0915323 19.1392362,25.5350032 15.943551,25.5350032 C12.7478658,25.5350032 10.092921,23.0915323 9.85538786,19.9317795 C9.09948465,18.2969811 9.04572962,16.427873 9.70644825,14.7530227 C10.3671669,13.0781725 11.6856816,11.7412515 13.3596704,11.0488022 C13.1429274,10.7266634 13.0282462,10.3476426 13.0303523,9.96040727 C13.0303476,9.42382175 13.2459093,8.90933471 13.6293773,8.53069782 C14.0128453,8.15206092 14.5326317,7.94046397 15.0738134,7.94269047 L15.2173623,7.94269047 C14.149869,8.01753381 13.3232286,8.8993495 13.3258942,9.96040727 C13.3233151,10.3106399 13.4167082,10.654993 13.5961039,10.9567073 L13.6552123,10.9567073 C13.6423355,10.8258524 13.6423355,10.6940655 13.6552123,10.5632106 C13.6544831,10.1426191 13.7874395,9.73249352 14.0351947,9.39109299 C14.2989065,8.54294475 15.0906281,7.96524578 15.9857712,7.96780728 L16.1293202,7.96780728 C15.4981335,8.0143712 14.9243356,8.34830247 14.5756142,8.87201232 C15.1992147,8.46283472 15.9989146,8.42572183 16.6583369,8.77535625 C17.3177592,9.12499066 17.7306611,9.80504109 17.7336905,10.5464661 C17.7378812,10.6217592 17.7378812,10.6972242 17.7336905,10.7725174 C19.6372788,11.2758829 21.2201697,12.5858475 22.0599831,14.3528591 C22.8997966,16.1198708 22.91108,18.1641324 22.0908225,19.9401518 L22.0317141,19.9317795 Z" id="Shape" fill="#0DB491" fill-rule="nonzero" opacity="0.2"></path>
                        <rect id="Rectangle" fill="#0DB491" opacity="0.2" x="49.5205931" y="11.4398682" width="66.1449753" height="2.71828666"></rect>
                        <rect id="Rectangle" fill="#0DB491" opacity="0.2" x="49.5205931" y="16.8764415" width="66.1449753" height="2.71828666"></rect>
                        <rect id="Rectangle" fill="#0DB491" opacity="0.2" x="49.5205931" y="22.3130148" width="66.1449753" height="2.71828666"></rect>
                        <path d="M217.141481,138.913659 C216.647421,136.280919 216.356748,133.614319 216.27202,130.937308 C216.27202,127.732911 211.924717,124.874934 211.924717,124.874934 C211.924717,124.874934 209.220694,118.63935 207.446994,117.729994 C205.673294,116.820638 200.082662,108.653755 200.082662,108.653755 C200.019157,107.04436 199.429962,105.499602 198.404603,104.254204 C196.737989,102.071836 195.216099,99.7834813 193.848629,97.4037216 C193.100892,96.4857051 193.474761,95.8448256 192.353156,90.5272579 C192.289396,90.2501208 192.219839,89.9816443 192.144486,89.7218283 C192.144486,89.6005808 192.066234,89.4966544 192.031456,89.3840675 C194.467806,86.9437184 195.291571,83.3320137 194.15294,80.0826543 C193.946247,79.4508216 193.577628,78.8836405 193.083503,78.4371529 C191.814091,77.4065494 189.788247,77.8309156 188.484056,76.8522753 L189.866499,70.7379385 C190.205588,69.2483267 190.37948,67.3430093 189.0579,66.5375797 C188.56551,66.301454 188.045681,66.1269175 187.51026,66.0179476 C185.232273,65.2991234 183.954166,62.9088161 183.371627,60.6224352 C182.805016,58.4175723 182.651743,56.1274889 182.919508,53.8672189 C183.171651,51.7020855 183.788968,49.5889153 184.049807,47.4151213 C184.468381,43.3863774 183.496226,39.3358203 181.293616,35.9312537 C180.428965,34.4703495 179.165623,33.2840378 177.650576,32.5103429 C176.250744,31.8867845 174.624853,31.8088397 173.303272,30.986089 C170.503609,29.2539822 170.642723,25.0189813 168.416903,22.5853713 C166.191084,20.1517614 162.235038,20.177743 158.983255,21.0091542 C155.731472,21.8405654 152.505772,23.2695535 149.167043,22.8971505 C147.019475,22.6633161 145.002327,21.6933364 142.854759,21.4681625 C142.236527,21.4060801 141.61248,21.4352632 141.002807,21.5547678 L141.04628,21.476823 C139.446473,21.7626206 137.985779,22.6459951 137.611911,24.1529279 C137.528623,24.5104389 137.493536,24.8774112 137.507575,25.2441552 C137.507575,26.1102085 137.716246,27.0282251 137.733635,27.8423153 C137.785285,28.5133866 137.566245,29.177283 137.125013,29.6870089 C136.698977,30.1460172 136.064271,30.3885122 135.646929,30.856181 C135.285368,31.222818 135.087836,31.7193971 135.099169,32.2332058 C135.099169,33.566928 136.768534,34.7361001 137.890138,35.2730531 C137.585827,35.5761718 137.29021,35.887951 137.020677,36.2083908 C133.83362,39.832022 132.091897,44.4943668 132.125614,49.3117782 C132.156545,57.27952 136.94123,64.4658685 144.298063,67.5941648 C144.245896,67.7587149 144.202423,67.9146045 144.141561,68.0791547 C143.832627,69.0437946 143.466818,69.9894362 143.04604,70.9111492 C141.472341,70.3828283 139.744801,70.5729687 138.324868,71.4307812 C136.177301,72.8944114 131.9865,72.807806 130.864896,72.530669 C129.743291,72.2535319 118.092518,70.7985622 117.162195,71.1536441 C116.231872,71.508726 114.362532,69.8718851 113.153981,72.0716607 C111.945431,74.2714362 111.41506,75.4665899 110.171731,76.0122035 C108.928402,76.5578171 106.815613,78.3072449 107.09384,78.6709873 C107.372068,79.0347297 104.015949,81.2691474 104.015949,81.2691474 C104.015949,81.2691474 101.12934,84.2916737 99.4512806,84.6640766 C97.7732215,85.0364796 94.2345164,87.3228605 94.2345164,87.3228605 L90.130662,90.5272579 C90.130662,90.5272579 87.0527711,90.9862662 87.983094,88.8817565 C88.913417,86.7772468 86.3050349,84.1098025 86.3050349,84.1098025 C86.3050349,84.1098025 81.0882707,73.569933 81.0882707,71.378818 C81.0882707,69.187703 76.8018295,59.920932 76.8018295,59.920932 L76.2714584,59.8689687 C76.193207,59.6437949 76.1149555,59.418621 76.0280094,59.1847866 C75.2454948,56.9763505 74.2282258,54.274264 73.4196273,52.6807258 C71.9415441,49.6581996 70.9851374,49.3117782 70.9851374,49.3117782 C70.9851374,49.3117782 52.9003549,35.7840246 41.1539408,39.9064387 C29.4075268,44.0288527 62.5948416,56.3094894 65.5770918,57.5999089 C66.6204447,58.0415961 67.3681809,59.4965658 67.8985519,61.1853699 C65.2584846,62.4719105 63.0415864,64.4818326 61.5080158,66.9792669 C61.5080158,66.9792669 68.6810665,82.8280435 68.8636533,86.7685863 C69.04624,90.7091291 73.8108846,101.708007 73.8108846,101.708007 C73.8108846,101.708007 75.549806,109.86623 85.1834306,109.407221 C85.1834306,109.407221 98.4166224,111.82351 101.303232,109.407221 C104.189841,106.990932 106.806918,105.076954 108.20675,104.808478 C109.241221,104.470544 110.149942,103.830898 110.815132,102.972445 C110.815132,102.972445 106.467828,130.460979 104.294177,132.851286 C102.120525,135.241593 83.1315033,166.116396 89.930686,171.607174 C95.3257434,175.780488 101.028078,179.543986 106.989505,182.865868 C107.572044,183.151665 109.30227,180.267708 111.780233,178.232482 C111.780233,178.743454 111.780233,179.271746 111.780233,179.81736 C111.823706,190.798917 113.258317,207.531068 115.301549,211.272418 C118.283799,216.771857 117.040471,227.406992 117.040471,227.406992 C118.621998,228.144978 120.337789,228.554565 122.083343,228.610807 C122.170289,228.965889 122.274624,229.338291 122.378959,229.728015 C124.02224,235.911637 126.68279,245.472866 128.039148,248.019063 C130.09977,251.873 131.586548,264.058371 131.586548,264.058371 C131.586548,264.058371 132.795098,276.061871 132.334284,277.716033 C132.151697,278.348251 132.942907,283.328058 134.177541,289.650248 C133.42111,298.241497 132.003889,314.809098 131.76044,320.828169 C131.76044,320.940756 131.76044,321.053343 131.76044,321.16593 L131.76044,321.469049 C131.76044,321.598957 131.76044,321.720204 131.76044,321.832791 C131.729229,322.207437 131.729229,322.584014 131.76044,322.95866 C131.8655,323.537107 131.823656,324.132541 131.638716,324.690767 C131.115415,326.349614 130.437167,327.955951 129.612872,329.488703 C129.569399,329.644592 129.065112,330.683856 128.743412,331.818386 C128.00437,332.138826 127.082742,332.944256 126.56976,334.892876 C125.639437,338.469676 124.239605,348.368666 124.239605,348.368666 C124.239605,348.368666 123.68315,354.43104 122.561546,355.790744 C121.439942,357.150447 120.327032,365.776339 128.247819,366.876227 C136.168606,367.976114 139.620365,362.684528 139.620365,362.684528 L139.342137,338.69485 C139.502606,338.491342 139.639676,338.270564 139.750784,338.036649 L139.750784,337.984686 C139.802952,337.863439 139.863814,337.750852 139.915982,337.612283 C139.968149,337.473715 139.915982,337.499696 139.985538,337.439073 C140.055095,337.378449 140.06379,337.248541 140.098568,337.144615 C140.094831,337.110072 140.094831,337.07523 140.098568,337.040688 C140.870276,334.741993 141.099374,332.296989 140.768053,329.895748 C140.768053,329.895748 140.768053,329.817803 140.768053,329.7745 L140.768053,329.583969 C140.768053,329.523345 140.768053,329.462721 140.768053,329.402097 C140.772146,329.347323 140.772146,329.292322 140.768053,329.237547 C140.763724,329.16833 140.763724,329.098912 140.768053,329.029694 L140.768053,328.882465 C140.768053,328.726576 140.768053,328.562026 140.820221,328.397476 C140.815455,328.365898 140.815455,328.333788 140.820221,328.30221 C140.820221,328.206944 140.820221,328.111678 140.820221,328.016412 C140.824465,327.973213 140.824465,327.929704 140.820221,327.886504 C140.820221,327.791238 140.863694,327.687312 140.881083,327.583385 L140.881083,327.514101 C140.95064,327.159019 141.04628,326.803937 141.141921,326.431534 L141.141921,326.35359 L141.246256,325.989847 C141.367981,325.600123 141.4984,325.21906 141.628819,324.837996 L141.628819,324.760051 L141.759238,324.40497 L141.759238,324.361667 C141.889657,323.997924 142.028771,323.642843 142.167885,323.305082 L142.167885,323.209816 L142.298304,322.906697 L142.298304,322.820092 L142.585226,322.14457 L144.784961,328.908447 C144.784961,328.908447 145.993512,333.948878 145.341416,335.135371 C144.689321,336.321864 146.089152,341.28435 147.019475,341.370955 L146.150015,347.606539 C145.670032,351.052355 145.379778,354.521759 145.280554,357.99918 C145.219692,358.388904 145.15883,358.726664 145.115356,358.98648 C144.515429,362.173557 145.984817,367.127382 145.984817,367.127382 C153.349149,375.787916 162.113313,367.802904 162.113313,367.802904 C162.113313,367.802904 163.139277,363.212821 162.113313,362.303465 C161.08735,361.394109 161.556858,358.085785 161.556858,358.085785 C161.556858,358.085785 162.017672,349.927562 162.113313,343.969115 C162.208954,338.010668 157.218249,332.771045 157.218249,332.771045 L156.940022,333.022201 C156.070561,330.692517 155.001125,327.964449 155.201101,326.743314 C155.574969,324.638804 154.175137,302.372572 154.175137,302.372572 C154.686582,296.416576 154.794059,290.432996 154.496837,284.462588 C154.618562,283.449306 154.731592,282.453344 154.844622,281.492025 C155.409771,276.70275 155.861891,272.606318 156.044477,270.467166 L156.044477,270.21601 C156.08795,269.635755 156.114034,269.22871 156.10534,269.029517 C156.10534,268.319353 156.10534,267.427319 156.174897,266.491981 C156.357483,263.893821 156.757435,261.053166 156.757435,261.053166 L158.713722,249.231537 C158.713722,249.231537 160.2005,243.463622 162.348068,240.250564 L162.600211,239.843519 C162.687157,239.70495 162.774103,239.549061 162.861049,239.384511 L162.861049,239.315226 L163.121888,238.821576 L163.121888,238.752292 C163.426199,238.163375 163.747899,237.479193 164.078294,236.734387 L164.156546,236.569837 L164.408689,235.998242 L164.50433,235.773068 L164.756474,235.201473 C164.756474,235.123528 164.817336,235.054244 164.852114,234.976299 C164.947755,234.742464 165.043396,234.50863 165.147731,234.274796 L165.286845,233.937035 C165.365096,233.763824 165.434653,233.590614 165.50421,233.408742 L165.695491,232.958395 L165.82591,232.620634 L166.034581,232.109662 C166.034581,232.031717 166.104138,231.953773 166.130222,231.875828 C166.660593,230.550766 167.182269,229.277668 167.634389,228.047872 C167.782197,227.675469 167.921311,227.320387 168.05173,226.973966 C172.825069,227.268424 176.068157,227.5369 176.068157,227.5369 C176.068157,227.5369 177.56363,216.81516 177.094121,209.756825 C176.772421,204.941568 177.667965,198.879195 178.267893,195.527568 C178.33745,195.155165 178.398312,194.826065 178.45048,194.531607 L178.580899,194.635533 C180.919748,196.462906 182.589113,190.417853 182.589113,190.417853 C182.589113,190.417853 181.963101,184.762525 181.119724,177.929364 C181.119724,177.70419 181.058862,177.470355 181.032778,177.245181 C182.37899,177.530292 183.74047,177.738485 185.110549,177.86874 C185.110549,177.86874 185.858285,177.799456 186.84947,177.669548 C189.662662,179.271927 192.627314,180.594701 195.70058,181.618751 L200.639117,172.455906 C201.571133,170.566225 202.661842,168.758399 203.899594,167.051733 C205.395067,165.2157 210.707472,159.352519 210.611831,158.252631 C210.51619,157.152743 212.350752,150.830554 214.246177,147.989899 C216.141601,145.149244 217.245816,139.381328 217.141481,138.913659 Z M196.448316,145.842086 C194.49203,146.664837 192.622689,151.246259 192.535743,152.623284 C192.448797,154.000309 190.388175,160.045362 188.240607,160.781507 C186.275626,161.457029 182.502167,164.903921 181.902239,165.458195 C181.284922,165.518819 180.589353,165.596764 179.859006,165.718011 C179.041713,159.932775 178.233114,155.15216 177.711438,154.18218 C176.22466,151.428131 179.354719,142.637689 179.354719,142.637689 C179.354719,142.637689 179.667725,133.751981 181.624011,131.638811 C183.580298,129.525641 183.119484,124.216734 183.119484,124.216734 C183.119484,124.216734 183.580298,122.016958 183.771579,121.012336 C183.96286,120.007715 186.545159,121.012336 186.562548,121.012336 C186.562548,121.012336 191.596725,123.757726 192.344462,127.88014 C193.092198,132.002554 198.587189,139.138833 198.587189,139.138833 C198.587189,139.138833 197.717729,141.607085 198.587189,142.897505 C199.45665,144.187924 198.413297,145.053978 196.457011,145.876729 L196.448316,145.842086 Z" id="Shape" fill="url(#linearGradient-2)" fill-rule="nonzero"></path>
                        <path d="M61.2998353,68.4829342 C64.3225483,63.3284687 70.035726,60.552288 75.7973641,61.4382103 L75.7973641,72.1482702 L69.544677,72.1482702 L64.5894016,70.8225103 L61.2998353,68.4829342 Z" id="Path" fill="#4C4981"></path>
                        <path d="M61.2998353,68.4829342 C64.3225483,63.3284687 70.035726,60.552288 75.7973641,61.4382103 L75.7973641,72.1482702 L69.544677,72.1482702 L64.5894016,70.8225103 L61.2998353,68.4829342 Z" id="Path" fill="#000000" opacity="0.1"></path>
                        <path d="M76.7034596,63.6970095 L68.7041776,69.4299835 C68.7041776,69.4299835 68.6345429,68.2745004 68.4343433,66.710154 C68.033944,63.7503395 67.1373977,59.3061736 65.2050357,58.4440054 C62.2629712,57.1285323 29.5172704,44.5515427 41.1288506,40.3295851 C52.7404309,36.1076275 70.5407919,49.9556485 70.5407919,49.9556485 C70.5407919,49.9556485 71.4634512,50.2756284 72.9257791,53.3776562 C73.7004647,55.004221 74.6666457,57.7773805 75.484853,60.0350168 C76.189904,62.0793331 76.7034596,63.6970095 76.7034596,63.6970095 Z" id="Path" fill="#AE6E79"></path>
                        <polygon id="Path" fill="#4C4981" points="140.420546 72.5226898 141.291738 72.1482702 143.75453 74.6568818 141.744087 78.490939 138.317957 77.2628426 139.113758 74.2000899"></polygon>
                        <path d="M128.876432,332.202302 C128.876432,332.202302 126.628855,331.934063 125.726419,335.490395 C124.823983,339.046726 123.478842,348.928309 123.478842,348.928309 C123.478842,348.928309 122.942488,354.985321 121.861268,356.326516 C120.780047,357.667712 119.70734,366.285975 127.343993,367.38489 C134.980646,368.483805 138.317957,363.205552 138.317957,363.205552 L138.045524,339.237089 L128.876432,332.202302 Z" id="Path" fill="#444053"></path>
                        <path d="M156.637018,334.009885 C156.637018,334.009885 161.517485,339.171327 161.431105,345.106985 C161.344725,351.042643 160.878273,359.103096 160.878273,359.103096 C160.878273,359.103096 160.429098,362.372009 161.431105,363.283864 C162.433112,364.195718 161.431105,368.729185 161.431105,368.729185 C161.431105,368.729185 152.853577,376.660601 145.64949,368.0668 C145.64949,368.0668 144.241497,363.154828 144.78569,359.989143 C145.329884,356.823459 146.971103,342.569276 146.971103,342.569276 L156.637018,334.009885 Z" id="Path" fill="#444053"></path>
                        <path d="M167.313015,224.887171 C167.313015,224.887171 162.459423,238.733692 160.393884,241.883776 C158.328345,245.033859 156.900317,250.849398 156.900317,250.849398 L155.013282,262.644903 C154.643075,265.280232 154.433005,267.936315 154.38427,270.597998 C154.469271,273.246145 149.717681,311.903901 149.717681,311.903901 L142.178038,321.683006 C142.178038,321.683006 138.854475,328.537034 139.389986,331.375571 C139.925496,334.214108 139.032979,338.774805 137.953458,340.142149 C137.953458,340.142149 137.774955,349.099118 137.50295,351.115517 C137.230945,353.131917 138.497469,358.791682 137.50295,359.769593 C136.508431,360.747503 123.324681,360.3148 122.959174,358.670525 C122.593667,357.026251 124.582705,349.073155 124.582705,349.073155 L125.747227,341.39699 C125.747227,341.39699 128.076271,337.19111 127.540761,335.823766 C127.005251,334.456422 128.52678,331.254414 128.620281,330.977483 C128.713783,330.700553 131.17033,326.226396 130.685821,324.495581 C130.201311,322.764766 133.465373,285.924366 133.465373,285.924366 L142.713549,219.841845 L167.313015,224.887171 Z" id="Path" fill="#AE6E79"></path>
                        <path d="M167.313015,224.869924 C167.313015,224.869924 166.581864,226.946928 165.561653,229.681649 C163.963323,234.00874 161.659347,239.910891 160.392585,241.866736 C158.326659,245.068783 156.889862,250.823813 156.889862,250.823813 L155.010974,262.619462 C154.641003,265.251956 154.430894,267.905173 154.381844,270.564001 C154.381844,271.611156 153.693202,278.292184 152.809019,285.977097 C151.448738,297.738129 149.71438,311.879061 149.71438,311.879061 L142.164821,321.658286 C142.164821,321.658286 141.782241,322.445816 141.314645,323.588168 C140.37095,325.829601 139.036174,329.473011 139.393248,331.376931 C139.928859,334.215502 139.036174,338.78491 137.956451,340.152271 C137.956451,340.152271 137.777914,349.118002 137.505858,351.117118 C137.233802,353.116234 138.500564,358.802031 137.505858,359.771299 C136.511153,360.740568 123.324929,360.325167 122.959354,358.672218 C122.593778,357.01927 124.574687,349.083386 124.574687,349.083386 L125.74793,341.398473 C125.74793,341.398473 128.077411,337.192541 127.5418,335.82518 C127.00619,334.45782 128.528004,331.255773 128.621523,330.978839 C128.715042,330.701905 131.17205,326.227693 130.68745,324.488203 C130.338878,323.164113 132.132748,301.520006 132.999928,291.256148 C133.280485,288.019484 133.467524,285.925172 133.467524,285.925172 L141.425168,229.075856 L142.062799,224.48914 L142.717435,219.841845 L167.313015,224.869924 Z" id="Path" fill="#000000" opacity="0.1"></path>
                        <path d="M159.157731,362.154941 C159.242837,363.15741 146.485396,364.617904 144.689652,363.520373 C142.893908,362.422842 144.689652,348.829012 144.689652,348.829012 L145.540716,342.624072 C144.638588,342.52901 143.293908,337.603083 143.923695,336.41049 C144.553482,335.217897 143.379015,330.20555 143.379015,330.20555 L141.259867,323.464808 L139.96625,319.351227 C137.872634,314.641349 134.859869,301.203074 132.936466,291.178381 C131.744977,284.878379 130.987531,279.94381 131.157743,279.278378 C131.608807,277.636402 130.434339,265.684548 130.434339,265.684548 C130.434339,265.684548 129.004553,253.585779 127.030086,249.714173 C125.719448,247.173432 123.157747,237.615405 121.566258,231.488243 C120.757748,228.333921 120.196046,226.069723 120.196046,226.069723 C120.196046,226.069723 133.813061,224.911698 142.017313,224.505526 C145.813056,224.324044 148.468374,224.298118 148.153481,224.617871 C147.838587,224.937624 147.770502,226.605526 147.787523,229.016638 C147.787523,235.282071 148.68114,246.300592 149.591778,249.256149 C150.851352,253.361088 152.144968,265.675906 151.566245,266.868498 C150.987522,268.061091 151.208798,275.994427 151.208798,275.994427 C152.131674,279.22054 152.660462,282.549626 152.783266,285.906775 C153.069296,291.852946 152.964097,297.811875 152.468372,303.743816 C152.468372,303.743816 153.821563,325.91913 153.455606,328.01913 C153.089649,330.119131 156.3322,336.661107 156.3322,337.966046 C156.3322,339.270985 157.149221,347.912962 157.149221,347.912962 C157.149221,347.912962 159.072625,361.152471 159.157731,362.154941 Z" id="Path" fill="#AE6E79"></path>
                        <path d="M167.313015,94.7126834 L165.772195,96.4497868 L164.773202,97.5528474 L158.914699,103.936702 L143.80281,105.673806 L135.777,103.467684 L133.787479,102.929182 C133.787479,102.929182 133.787479,98.7861908 134.151519,93.8180752 C134.659482,87.4515914 135.887058,79.7127959 138.799378,77.6109008 C140.257631,76.437406 141.419148,74.9210595 142.185795,73.1899728 C142.770794,71.9963255 143.260604,70.7560326 143.650421,69.4812571 C143.709683,69.3162323 143.752014,69.159893 143.80281,69.0035537 C144.465949,66.7796706 144.941794,64.5014933 145.225105,62.1941085 C145.225105,62.1941085 147.155363,61.0997334 149.830633,59.8229625 C156.832052,56.470353 168.921563,51.849658 164.713939,62.1941085 C164.093929,63.710321 163.567985,65.2652353 163.139255,66.8495455 C163.071527,67.075369 163.012264,67.3098779 162.961468,67.5357014 C161.556105,73.3028845 162.48737,76.7944623 163.537159,78.722647 C163.717723,79.0529523 163.921444,79.3693594 164.146714,79.6693683 C164.429394,80.0747949 164.772184,80.4323325 165.16264,80.7290014 L166.906645,92.0636008 L167.050567,93.0016366 L167.313015,94.7126834 Z" id="Path" fill="#AE6E79"></path>
                        <path d="M164.606022,61.8634973 C163.783991,63.7225298 165.008293,60.3417229 164.606022,61.8634973 C161.317898,64.0680137 153.561073,70.3360791 149.197313,70.3360791 C146.258989,70.3360791 145.375743,69.8343048 142.848435,68.7649498 C143.614023,66.5161367 144.158498,64.205957 144.475007,61.8634973 C144.475007,61.8634973 170.6051,48.3073664 164.606022,61.8634973 Z" id="Path" fill="#000000" opacity="0.1"></path>
                        <path d="M170.031298,50.8380539 C170.037592,60.8181184 162.503907,69.1888502 152.582167,70.2259073 C151.904654,70.3010352 151.223439,70.3377972 150.541779,70.3360174 C139.787366,70.3360174 131.069193,61.6140661 131.069193,50.8549939 C131.069193,40.0959217 139.787366,31.3739703 150.541779,31.3739703 C161.296191,31.3739703 170.014365,40.0959217 170.014365,50.8549939 L170.031298,50.8380539 Z" id="Path" fill="#AE6E79"></path>
                        <path d="M173.655684,138.561136 L170.796214,145.949325 C170.796214,145.949325 168.452673,146.052897 164.814938,146.165101 C152.572561,146.553499 125.464439,147.028207 124.248945,143.938287 C123.971544,143.150028 123.829674,142.321524 123.829207,141.487066 C123.66306,136.739982 125.910411,129.446735 125.910411,129.446735 C125.910411,129.446735 127.204605,114.860241 127.204605,114.230174 C127.204605,113.600106 126.094047,103.337774 126.094047,103.337774 L128.306419,95.1382658 L134.497564,90.8227351 C134.497564,90.8227351 137.269588,95.0174309 138.931054,95.3799355 C140.59252,95.7424401 142.813637,97.7534774 142.813637,97.7534774 C142.813637,97.7534774 148.25275,101.033281 150.010406,99.2034957 C151.768061,97.3737107 165.435802,89.3640857 165.435802,89.3640857 L172.641315,97.2010895 L173.655684,138.561136 Z" id="Path" fill="#000000" opacity="0.1"></path>
                        <path d="M173.655684,140.393376 L170.796214,147.784575 C170.796214,147.784575 168.452673,147.88819 164.814938,147.991805 L164.456411,147.991805 L159.148466,148.129958 C149.389542,148.345823 135.931672,148.406265 128.909793,147.396019 C126.286427,147.016098 124.537516,146.532561 124.248945,145.755449 C124.085573,145.317748 123.974067,144.862844 123.916652,144.39982 C123.868767,144.035983 123.839581,143.669983 123.829207,143.303229 C123.66306,138.55421 125.910411,131.214818 125.910411,131.214818 C125.910411,131.214818 127.204605,116.62238 127.204605,115.983422 C127.204605,115.344463 126.094047,105.129756 126.094047,105.129756 L128.306419,96.9269062 L132.565018,93.9825149 L134.497564,92.6441552 C135.146708,93.6053675 135.856417,94.525326 136.622491,95.3985858 C137.214995,96.1908217 138.012359,96.8111467 138.931054,97.1945782 C140.59252,97.565865 142.813637,99.5690873 142.813637,99.5690873 C142.813637,99.5690873 148.25275,102.858862 150.010406,101.028331 C151.357067,99.6295294 159.629417,94.6128391 163.49451,92.3246757 L165.435802,91.1762768 L166.406447,92.23833 L172.641315,99.0251089 L173.655684,140.393376 Z" id="Path" fill="#FFFFFF"></path>
                        <path d="M76.7034596,63.900829 L68.8147056,69.4299835 C68.8147056,69.4299835 68.7460331,68.3155803 68.5485997,66.8068498 C72.4457643,65.1695342 74.8149658,61.5348652 75.5016908,60.369028 C76.1969999,62.3406645 76.7034596,63.900829 76.7034596,63.900829 Z" id="Path" fill="#000000" opacity="0.1"></path>
                        <path d="M105.236224,82.7674861 L103.484374,82.3227576 C103.484374,82.3227576 100.611341,85.2990179 98.9470835,85.6582217 C97.2828264,86.0174256 93.7703679,88.2838307 93.7703679,88.2838307 L89.6973175,91.4396929 C89.6973175,91.4396929 86.64034,91.8929739 87.5688203,89.8147232 C88.4973006,87.7364725 85.9045631,85.119416 85.9045631,85.119416 C85.9045631,85.119416 80.7278475,74.7281623 80.7278475,72.5643868 C80.7278475,70.4006114 76.4708529,61.2751236 76.4708529,61.2751236 C76.4708529,61.2751236 71.1014339,71.4782229 61.2998353,68.2282834 C61.2998353,68.2282834 68.4211039,83.8536501 68.6050482,87.7364725 C68.7889924,91.6192948 73.5102271,102.46383 73.5102271,102.46383 C73.5102271,102.46383 75.2620767,110.503153 84.7921386,110.049872 C84.7921386,110.049872 97.9310107,112.436012 100.795285,110.049872 C103.659559,107.663733 106.252296,105.773636 107.645017,105.517062 C108.671558,105.18094 109.571525,104.552431 110.228995,103.71249 L110.228995,92.9705854 L105.236224,82.7674861 Z" id="Path" fill="#353839"></path>
                        <path d="M88.4827018,93.8945634 C88.4827018,93.8945634 90.0390915,102.072742 89.0722434,102.955519 L88.4827018,93.8945634 Z" id="Path" fill="#000000" opacity="0.1"></path>
                        <path d="M164.594728,147.949239 C152.415505,148.375576 125.447225,148.896654 124.238002,145.514382 C123.962031,144.649125 123.820893,143.739692 123.820428,142.823723 L163.742183,145.116468 L164.594728,147.949239 Z" id="Path" fill="#000000" opacity="0.1"></path>
                        <path d="M167.313015,224.012127 C167.313015,224.012127 166.581332,226.109082 165.568887,228.870072 C160.608759,228.555528 154.040629,228.232248 147.80431,228.188561 C145.592245,228.188561 143.431229,228.188561 141.397831,228.25846 C137.874539,228.261457 134.362281,228.66288 130.924558,229.455471 C127.896819,230.414067 124.731106,230.830793 121.565824,230.687432 C120.75757,227.498314 120.196046,225.209139 120.196046,225.209139 C120.196046,225.209139 133.808749,224.038339 142.010403,223.627685 L142.665514,218.93575 L167.313015,224.012127 Z" id="Path" fill="#000000" opacity="0.1"></path>
                        <path d="M178.186161,190.064013 L176.629027,193.339123 C176.629027,193.339123 176.41155,194.313038 176.13318,195.864406 C175.541643,199.191229 174.654337,205.215708 174.967504,209.999093 C175.437254,217.006106 173.958411,227.650215 173.958411,227.650215 C173.958411,227.650215 140.15381,224.831896 130.236865,227.650215 C120.319921,230.468533 115.448439,227.650215 115.448439,227.650215 C115.448439,227.650215 116.640213,217.092293 113.708625,211.636648 C111.690439,207.896127 110.28119,191.296489 110.228995,180.393818 C110.228995,175.351872 110.481268,171.533783 111.098902,170.766717 C113.117088,168.301766 121.755268,143.729819 121.755268,143.729819 L123.721259,143.833243 L128.940703,144.109042 L158.856819,145.669029 L163.54562,145.910353 L164.041467,147.418627 L178.186161,190.064013 Z" id="Path" fill="#65617D"></path>
                        <path d="M192.415054,180.598724 L192.68369,183.598023 C192.68369,183.598023 178.412384,178.682012 179.117555,172.639046 C179.822725,166.59608 179.117555,167.314847 179.117555,167.314847 L190.601759,168.344192 L192.415054,180.598724 Z" id="Path" fill="#4C4981"></path>
                        <path d="M192.415054,180.598724 L192.68369,183.598023 C192.68369,183.598023 178.412384,178.682012 179.117555,172.639046 C179.822725,166.59608 179.117555,167.314847 179.117555,167.314847 L190.601759,168.344192 L192.415054,180.598724 Z" id="Path" fill="#000000" opacity="0.1"></path>
                        <path d="M98.2100896,95.5155886 C99.8559658,96.8940592 101.796252,97.8885864 103.886326,98.4250412 C103.270551,98.3113602 102.694283,98.0449956 102.211836,97.6510522 C101.057668,96.8397625 99.9602625,95.9631967 98.8533964,95.1052812 C97.9641193,94.4152187 96.8383324,93.2402474 95.7314662,92.9884679 C96.4667627,93.9130894 97.2974194,94.759999 98.2100896,95.5155886 Z" id="Path" fill="#000000" opacity="0.1"></path>
                        <path d="M97.8936472,100.183818 C98.3574164,100.707252 98.7300102,101.30584 98.9956919,101.9543 C99.2252406,102.694089 99.3332219,103.466673 99.3153689,104.241525 C99.4317166,105.339233 99.2964511,106.449187 98.9199789,107.485997 L96.5897013,101.920415 C96.1943112,100.97164 95.7484458,100.022865 95.310993,99.107975 C95.1006791,98.7182995 93.779908,97.1087706 93.931334,96.7699224 C94.3687869,95.7957338 97.4646069,99.6501321 97.8936472,100.183818 Z" id="Path" fill="#000000" opacity="0.1"></path>
                        <path d="M163.945075,131.575727 C165.543681,131.354683 167.041065,130.533673 168.21911,129.23229 C165.817102,129.587356 163.551863,130.703279 161.184048,131.26124 C158.991183,131.868707 156.691657,131.619641 154.627677,130.551107 C157.32032,132.153978 161.021634,132.204701 163.945075,131.575727 Z" id="Path" fill="#000000" opacity="0.1"></path>
                        <path d="M157.345964,113.811706 C156.913332,113.87116 156.471939,113.772869 156.122702,113.539307 C154.3206,112.631311 152.54131,111.677914 150.784832,110.679118 C148.931467,109.768429 147.183707,108.698921 145.566722,107.485997 C149.150964,110.353752 152.487133,112.775077 157.345964,113.811706 Z" id="Path" fill="#000000" opacity="0.1"></path>
                        <path d="M162.666865,132.85095 C163.687726,132.872151 164.710283,132.834386 165.711346,132.738514 C166.724664,132.638435 167.620073,132.36359 168.21911,131.968758 C167.856292,131.928171 167.473858,131.956144 167.15493,132.046599 C164.059272,132.654311 160.661204,132.84457 157.345964,132.595807 C158.928354,132.911493 160.973431,132.846626 162.666865,132.85095 Z" id="Path" fill="#000000" opacity="0.1"></path>
                        <path d="M145.566722,177.609203 C143.716382,177.879075 141.813376,178.058263 139.887113,178.143997 C138.389129,178.176791 136.888277,178.16336 135.393912,178.103787 L128.115599,177.882632 L124.472235,177.770044 C124.043109,177.770044 122.284534,177.770044 123.1512,177.367942 C123.588741,177.170913 126.020454,177.295564 126.643108,177.287522 C127.854758,177.287522 129.057993,177.259375 130.261229,177.255354 C132.6677,177.255354 135.082585,177.255354 137.489056,177.327732 C140.19283,177.378665 142.885385,177.472489 145.566722,177.609203 Z" id="Path" fill="#000000" opacity="0.1"></path>
                        <path d="M137.411862,180.327394 C136.133072,180.300527 134.488914,180.694581 133.175327,180.775183 C131.706534,180.866917 130.225891,180.898362 128.747409,180.869219 C125.816795,180.831978 122.921946,180.528802 120.196046,179.973641 C125.94625,180.121411 131.679056,180.210969 137.411862,180.327394 Z" id="Path" fill="#000000" opacity="0.1"></path>
                        <path d="M120.94706,183.846175 C121.486761,183.965686 122.018997,184.122241 122.540589,184.314906 C125.609606,185.279941 128.880977,184.434387 131.975288,183.598023 C131.199603,184.866355 129.757839,185.436185 128.391957,185.767054 C126.105372,186.390444 123.724295,186.484372 121.402354,186.042779 C120.668825,185.886535 118.872944,185.60162 118.468238,184.774447 C117.911768,183.552069 120.26412,183.726694 120.94706,183.846175 Z" id="Path" fill="#000000" opacity="0.1"></path>
                        <path d="M139.308288,190.679233 C140.235581,190.868189 141.151949,191.107782 142.05332,191.396949 C145.537727,192.251373 149.158109,191.072268 152.659513,190.269109 C156.868952,189.304056 161.186681,188.901851 165.500824,189.072916 C164.727456,189.072916 163.503664,189.756455 162.747293,189.987149 C161.752963,190.286198 160.750133,190.559614 159.747304,190.841574 C157.768414,191.336284 155.765852,191.729824 153.747327,192.020679 C149.673643,192.614004 145.550971,192.794339 141.441425,192.558966 C139.563245,192.456435 136.342294,192.652953 134.693575,191.704542 C136.080682,190.869105 137.700184,190.50928 139.308288,190.679233 Z" id="Path" fill="#000000" opacity="0.1"></path>
                        <path d="M140.589689,76.4950946 C140.589689,76.4950946 140.768596,84.9540149 139.414012,88.8053014 C138.996561,90.0050249 138.332048,92.2219054 137.616419,94.708289 C136.824115,97.4641756 135.963656,100.550421 135.299143,102.941174 C134.63463,105.331928 134.20014,106.983721 134.20014,106.983721 C134.20014,106.983721 131.158715,132.247465 130.366411,144.279475 C130.366411,144.488122 130.366411,144.705464 130.366411,144.905417 C130.323814,145.583522 130.24714,146.287708 130.144907,147.017974 C128.389911,158.971741 118.285905,177.402277 114.895184,178.880197 C113.839376,179.376299 112.874209,180.052505 112.041186,180.879736 C112.041186,175.793952 112.288249,171.942665 112.893126,171.168931 C114.869626,168.682547 123.329388,143.896954 123.329388,143.896954 L125.254772,144.001278 C125.20812,143.634951 125.179685,143.266448 125.169578,142.897185 C125.00771,138.115678 127.197195,130.726076 127.197195,130.726076 C127.197195,130.726076 128.458066,116.03381 128.458066,115.39048 C128.458066,114.74715 127.376103,104.462563 127.376103,104.462563 L129.53151,96.2035966 L133.680457,93.2390623 C134.191621,86.8666177 135.426934,79.1205766 138.357607,77.0167135 C139.82505,75.84212 140.993887,74.3243538 141.765366,72.5916463 C142.353204,72.6698891 141.288279,72.1482702 141.288279,72.1482702 L140.589689,76.4950946 Z" id="Path" fill="#000000" opacity="0.1"></path>
                        <path d="M141.942339,72.4382498 C140.372652,71.9133598 138.647617,72.1075645 137.237887,72.9678779 C135.101098,74.4265258 130.924247,74.3397015 129.807489,74.0618638 C128.690731,73.7840261 117.083483,72.3253782 116.16018,72.6900402 C115.236876,73.0547021 113.372682,71.4050408 112.16799,73.6016951 C110.963298,75.7983494 110.409316,76.9965244 109.195831,77.5521998 C107.982346,78.1078752 105.845557,79.8443608 106.126945,80.2090227 C106.408333,80.5736847 103.066852,82.8137511 103.066852,82.8137511 L109.837747,104.519821 C109.837747,104.519821 105.441062,132.025753 103.339447,134.404738 C101.237831,136.783723 82.2353597,167.693166 89.0414278,173.197826 C94.4115375,177.373025 100.090297,181.145927 106.030218,184.484982 C106.777654,184.849644 109.468425,179.90066 113.188021,178.337823 C116.907616,176.774986 128.418137,156.102125 129.174367,144.398212 C129.930596,132.6943 133.166557,106.525462 133.166557,106.525462 C133.166557,106.525462 137.158746,92.2168206 138.556892,88.370505 C139.955038,84.5241894 139.72641,76.0675046 139.72641,76.0675046 L141.942339,72.4382498 Z" id="Path" fill="#353839"></path>
                        <path d="M178.186161,191.337227 L176.672543,194.641606 C176.672543,194.641606 176.461144,195.624224 176.190553,197.189456 C175.906482,197.159533 175.638042,197.041225 175.42106,196.850323 C173.188684,195.006827 160.056565,181.145826 159.43928,168.832666 C158.974201,159.754319 159.194056,151.936853 159.337808,148.449864 C159.388544,147.354201 159.422368,146.710717 159.430824,146.545498 C159.430824,146.545498 169.577986,133.867117 168.444886,129.371422 C167.311786,124.875727 164.605876,100.805933 164.605876,100.805933 L164.208446,97.6493817 L163.531968,92.3188963 L161.93379,79.3970346 L163.624984,79.7970384 C163.907327,80.2029419 164.249709,80.5609002 164.6397,80.857918 L166.38163,92.2058518 L172.410735,99.0406992 L173.391627,140.641094 L170.626526,148.084643 C170.626526,148.084643 168.360326,148.188992 164.842643,148.29334 L164.495949,148.29334 L178.186161,191.337227 Z" id="Path" fill="#000000" opacity="0.1"></path>
                        <path d="M184.716495,123.197479 C184.716495,123.197479 182.163091,122.188974 182.018398,123.197479 C181.873705,124.205985 181.388559,126.405571 181.388559,126.405571 C181.388559,126.405571 181.831149,131.735001 179.950141,133.847647 C178.069134,135.960292 177.762725,144.862963 177.762725,144.862963 C177.762725,144.862963 174.741197,153.678694 176.171103,156.434696 C176.690295,157.434508 177.498873,162.450954 178.307451,168.449824 C178.818132,172.196945 179.328813,176.326601 179.788426,180.09111 C180.63956,186.950687 181.20982,192.61049 181.20982,192.61049 C181.20982,192.61049 179.592665,198.696301 177.345669,196.835781 C175.098674,194.975262 161.880553,181.117003 161.250713,168.832361 C160.808123,160.181817 160.986861,152.678882 161.131554,148.975232 C161.199645,147.401615 161.250713,146.514826 161.250713,146.514826 C161.250713,146.514826 171.464329,133.847647 170.33232,129.352841 C169.20031,124.858036 166.468168,100.793004 166.468168,100.793004 L165.991533,97.0806599 L165.489363,93.0814133 L165.378716,92.2120119 L163.753049,79.3970346 C164.042435,79.4578927 174.12838,81.7878886 175.45615,83.1441548 C176.78392,84.5004211 184.980347,86.4478803 184.980347,86.4478803 C187.509164,87.1520196 189.464585,89.2026711 190.087155,91.8033932 C190.163757,92.0555196 190.223336,92.325034 190.282916,92.6032425 C191.363857,97.9326734 191.00638,98.5673364 191.729845,99.4889019 C192.453309,100.410467 184.716495,123.197479 184.716495,123.197479 Z" id="Path" fill="#353839"></path>
                        <path d="M179.092257,179.067545 C175.379684,178.328594 169.913476,176.560388 170.033236,172.689688 C170.152997,169.056509 174.395938,167.754546 177.603806,167.288303 C178.159837,171.079829 178.630324,175.258425 179.092257,179.067545 Z" id="Path" fill="#000000" opacity="0.1"></path>
                        <path d="M191.754554,177.29873 C191.609356,177.604553 190.994402,177.869049 190.183003,178.125279 C188.216673,178.580848 186.21837,178.895787 184.204278,179.067545 C184.204278,179.067545 171.666037,178.108748 171.845399,172.612196 C171.973514,168.66129 177.636221,167.6529 180.822028,167.380139 C182.069019,167.272687 182.940205,167.289218 182.940205,167.289218 C182.940205,167.289218 192.30118,176.166357 191.754554,177.29873 Z" id="Path" fill="#AE6E79"></path>
                        <path d="M191.754371,177.332142 C191.607637,177.638986 190.986173,177.904364 190.166187,178.16145 C186.860346,173.915393 182.251158,168.466839 179.998353,167.98584 C179.998353,167.98584 180.257296,167.745341 180.680236,167.380445 C181.940426,167.272635 182.820833,167.289221 182.820833,167.289221 C182.820833,167.289221 192.306783,176.19599 191.754371,177.332142 Z" id="Path" fill="#000000" opacity="0.1"></path>
                        <path d="M187.265191,98.4250412 L191.086876,98.9747695 C192.461039,101.371929 193.988091,103.680216 195.658777,105.885639 C196.684411,107.143658 197.272482,108.695062 197.335729,110.309643 C197.335729,110.309643 202.931452,118.511938 204.696665,119.436878 C206.461877,120.361818 209.171479,126.626975 209.171479,126.626975 C209.171479,126.626975 213.58451,129.480327 213.58451,132.735067 C213.659,135.422278 213.939294,138.100049 214.422986,140.745394 C214.511247,141.207864 213.769857,146.923293 211.898732,149.776644 C210.027607,152.629996 208.174134,158.991138 208.27122,160.09932 C208.368307,161.207502 203.046191,167.079997 201.554587,168.947328 C200.315148,170.664894 199.22562,172.483507 198.297769,174.38353 L193.355174,183.598023 C193.355174,183.598023 182.913942,168.397599 179.092257,167.568644 C179.092257,167.568644 183.381723,163.511126 185.526457,162.778155 C187.67119,162.045184 189.718836,155.954543 189.815923,154.57586 C189.91301,153.197176 191.766483,148.581203 193.725869,147.752248 C195.685255,146.923293 196.709078,146.094337 195.870602,144.802912 C195.032126,143.511487 195.870602,141.024621 195.870602,141.024621 C195.870602,141.024621 190.371965,133.834524 189.62175,129.681021 C188.871534,125.527519 183.849505,122.770151 183.849505,122.770151 L180.954556,115.789475 L187.265191,98.4250412 Z" id="Path" fill="#353839"></path>
                        <path d="M201.574532,132.047706 C203.65367,130.286932 206.272034,129.29328 208.99341,129.23229 C207.253931,129.537366 205.410083,129.912174 204.140263,131.132478 C203.637315,131.667706 203.188647,132.251669 202.800864,132.875769 C202.357297,133.503354 198.817457,138.018479 198.252126,137.312446 C197.408479,136.231605 200.861345,132.657858 201.574532,132.047706 Z" id="Path" fill="#000000" opacity="0.1"></path>
                        <path d="M193.589786,127.420099 C194.460416,127.320963 195.221897,126.61975 195.581105,125.586385 C195.922253,124.561073 196.13297,123.470804 196.205052,122.358016 C196.411102,120.498014 196.701453,118.65537 197.074595,116.839658 C197.170361,116.467904 197.217476,116.077982 197.213988,115.686054 C197.179543,115.298782 197.091867,114.922651 196.955116,114.575495 C196.801565,113.995726 196.596636,113.441037 196.344445,112.92257 C195.820064,113.68877 195.680671,115.401957 195.461626,116.366164 C195.204967,117.605857 194.959371,118.845551 194.724838,120.085245 C194.611997,120.739527 193.63625,127.420099 193.589786,127.420099 Z" id="Path" fill="#000000" opacity="0.1"></path>
                        <path d="M189.965404,91.4626683 C189.591084,91.9417554 189.16424,92.3778639 188.692773,92.7629182 C187.21966,93.9504798 185.206114,94.9560064 184.996914,96.8283662 C185.049971,97.4407312 184.975795,98.0574039 184.778998,98.6400477 C184.299582,99.4548709 183.114118,99.3941926 182.164004,99.2294943 C181.371144,99.1550451 180.611279,98.8772751 179.958692,98.4233394 C178.973711,97.5565061 178.877827,96.0828896 178.128196,95.0340213 C177.209337,93.9366863 175.83262,93.3225173 174.39747,93.3697015 C172.985373,93.3263598 171.581993,93.6384198 170.178613,93.7077665 C169.273843,93.751414 168.367037,93.6903257 167.476452,93.5257315 C167.180086,93.4737215 166.892437,93.4130432 166.604787,93.3436965 C165.97502,93.1879275 165.359728,92.9791339 164.765574,92.7195766 C164.467942,92.5960492 164.176992,92.4571672 163.89391,92.3034966 C162.945179,91.824865 162.065605,91.2213232 161.278915,90.5091517 C159.901685,89.2435752 158.759804,87.518577 158.87312,85.6462172 C159.070504,84.5226865 159.332432,83.4113202 159.657619,82.3175775 C160.224201,79.0842894 158.062472,76.024368 155.717694,73.7099233 C154.785013,72.7997483 153.791315,71.8982417 152.858633,70.9620618 C151.403589,69.6316577 150.253151,68.0057308 149.485291,66.1944789 C148.870147,64.2697245 148.665305,62.2385675 148.883842,60.2306661 C149.101141,58.189607 149.162333,56.1350892 149.066892,54.0848183 C148.36956,46.803419 142.093573,41.2296812 135.869887,38.1870964 L135.599671,38.0484031 C140.680446,32.3779276 148.559611,30.0706892 155.919746,32.0981203 C163.279881,34.1255515 168.842388,40.1354482 170.265246,47.597422 C171.688104,55.0593958 168.724135,62.6771571 162.621279,67.2433472 C162.551546,67.4687238 162.490529,67.7027688 162.438229,67.9281454 C160.991266,73.6839183 161.950097,77.1685879 163.030962,79.0929578 C163.327328,79.1536361 173.656555,81.4767492 175.016352,82.8290091 C176.37615,84.181269 184.770281,86.1229755 184.770281,86.1229755 C187.346636,86.8358598 189.333941,88.8784683 189.965404,91.4626683 Z" id="Path" fill="#000000" opacity="0.1"></path>
                        <path d="M134.326306,32.77567 C134.730733,32.3064185 135.350281,32.063103 135.763313,31.6025413 C137.045433,30.194787 135.763313,27.8919789 136.236579,26.0323528 C136.744264,23.9641704 139.24827,23.0604269 141.34785,23.2863628 C143.447429,23.5122986 145.409331,24.4768711 147.500305,24.7114968 C150.752932,25.08516 153.902301,23.6600259 157.077484,22.8258011 C160.252668,21.9915763 164.081818,21.956817 166.276051,24.3986625 C168.470283,26.840508 168.306791,31.0377016 171.025919,32.8191192 C172.282224,33.6359643 173.865514,33.6881034 175.225077,34.3398415 C176.711617,35.1154477 177.945417,36.3071327 178.778873,37.772329 C180.927336,41.1909142 181.870266,45.2417849 181.454976,49.2689897 C181.231251,51.4414501 180.594493,53.5617715 180.353558,55.734232 C180.094466,57.9960722 180.243147,60.2866016 180.792404,62.4949289 C181.368928,64.7803573 182.608024,67.1787536 184.836676,67.9000105 C185.358293,68.0093326 185.864216,68.1845055 186.342521,68.421401 C187.624642,69.2208664 187.46115,71.1326316 187.134166,72.6185945 L185.757393,78.744933 C187.030908,79.7268851 189.001415,79.3010829 190.240511,80.3351741 C190.728966,80.7803767 191.088786,81.3509661 191.281696,81.986244 C192.49507,85.5120521 191.434934,89.4284104 188.614197,91.8405246 C187.159981,93.0397227 185.172264,94.0390545 184.965748,95.9247502 C185.021234,96.535827 184.947918,97.1518425 184.750627,97.7322373 C184.277362,98.5490824 183.107104,98.4882535 182.169177,98.3231465 C181.38858,98.251 180.640626,97.9722424 180.00076,97.5149913 C179.019809,96.6460071 178.93376,95.168734 178.193745,94.1172631 C177.286672,93.0172052 175.927616,92.4015122 174.510876,92.4488135 C173.108288,92.4053643 171.731515,92.7181986 170.337532,92.7877173 C167.105067,92.9295299 163.947809,91.7771915 161.551998,89.5811657 C160.085142,88.3938979 159.212727,86.6127463 159.168459,84.7148543 C159.367375,83.5865162 159.625889,82.4697257 159.942894,81.3692652 C160.502208,78.1366441 158.368209,75.0604401 156.062114,72.7489422 C153.756019,70.4374443 151.036892,68.2910533 149.909658,65.2061595 C148.498466,61.3826291 149.909658,57.1246067 149.488022,53.040381 C148.799635,45.7409139 142.604155,40.1533457 136.468909,37.111901 C135.066322,36.4254035 132.725807,34.6092266 134.326306,32.77567 Z" id="Path" fill="#444053"></path>
                        <path d="M182.422522,94.935715 C181.442034,94.0758037 181.355265,92.6225536 180.609052,91.5734618 C179.687562,90.4898903 178.315798,89.8846257 176.886668,89.9310311 C175.481012,89.8880355 174.09271,90.1976036 172.687054,90.2663965 C169.434251,90.4137553 166.253062,89.2897852 163.827952,87.1363193 C162.448327,85.8808488 161.320331,84.1610261 161.424454,82.3122168 C161.625063,81.1984974 161.885743,80.0962309 162.205374,79.0101573 C162.769372,75.802688 160.617503,72.767201 158.283421,70.4712378 C155.949338,68.1752745 153.224795,66.0598927 152.079446,63.0072075 C150.665113,59.2321967 152.079446,55.0100321 151.662955,50.9684489 C150.968804,43.7451938 144.721445,38.2073648 138.526148,35.1976752 C137.077107,34.4925479 134.716994,32.7039323 136.330895,30.8981185 C136.738709,30.4337664 137.354768,30.2015904 137.779935,29.7458373 C139.072792,28.352781 137.779935,26.0654169 138.257164,24.2252066 C138.347004,23.863237 138.506061,23.5217025 138.725716,23.2191104 C137.175067,23.3656918 135.854645,24.3984326 135.350407,25.8590382 C134.890532,27.6992484 136.166034,29.9866125 134.873178,31.3796689 C134.456687,31.8354219 133.831952,32.0675979 133.424138,32.53195 C131.810237,34.3549621 134.17035,36.1435776 135.628067,36.8315067 C141.849396,39.8497954 148.062047,45.3790253 148.756198,52.6022804 C149.137981,56.6094672 147.758356,60.8316318 149.181366,64.641039 C150.318038,67.6937242 153.051257,69.800507 155.38534,72.1050693 C157.719423,74.4096317 159.862614,77.4365195 159.298617,80.6439888 C158.979951,81.7303135 158.719282,82.8325289 158.517697,83.9460483 C158.413574,85.7948576 159.541569,87.5146803 160.921194,88.7701508 C163.337068,90.9432485 166.520763,92.0835556 169.780297,91.9432236 C171.185952,91.8744307 172.574254,91.5648626 173.988587,91.6078582 C175.415221,91.5615405 176.784305,92.1670339 177.702295,93.2502888 C178.448507,94.2993807 178.569984,95.7870273 179.524441,96.6125421 C180.169666,97.0650192 180.923883,97.3408664 181.711017,97.4122597 C182.648121,97.5842419 183.828178,97.6444357 184.314083,96.82752 C184.47996,96.4974409 184.551954,96.1288089 184.522329,95.7612299 C183.759664,95.6804307 183.033678,95.3950177 182.422522,94.935715 Z" id="Path" fill="#000000" opacity="0.1"></path>
                    </g>
                </g>
                </svg>